<?xml version="1.0" encoding="UTF-8" standalone="no"?>
<!-- Created with Inkscape (http://www.inkscape.org/) -->

<svg
   width="355.78406mm"
   height="194.5574mm"
   viewBox="0 0 355.78406 194.5574"
   version="1.1"
   id="svg965"
   xmlns="http://www.w3.org/2000/svg"
   xmlns:svg="http://www.w3.org/2000/svg">
  <defs
     id="defs962">
    <marker
       style="overflow:visible"
       id="Arrow1Mend"
       refX="0"
       refY="0"
       orient="auto">
      <path
         transform="matrix(-0.4,0,0,-0.4,-4,0)"
         style="fill:context-stroke;fill-rule:evenodd;stroke:context-stroke;stroke-width:1pt"
         d="M 0,0 5,-5 -12.5,0 5,5 Z"
         id="path30575" />
    </marker>
    <rect
       x="720.46039"
       y="518.6322"
       width="206.79118"
       height="97.605431"
       id="rect9856" />
    <rect
       x="613.56085"
       y="889.8974"
       width="446.50992"
       height="145.19379"
       id="rect63860" />
    <rect
       x="75.037239"
       y="537.15784"
       width="216.21611"
       height="83.631508"
       id="rect5679" />
    <marker
       style="overflow:visible"
       id="marker13687"
       refX="0"
       refY="0"
       orient="auto">
      <path
         transform="matrix(-0.2,0,0,-0.2,-1.2,0)"
         style="fill:context-stroke;fill-rule:evenodd;stroke:context-stroke;stroke-width:1pt"
         d="M 0,0 5,-5 -12.5,0 5,5 Z"
         id="path13685" />
    </marker>
    <rect
       x="60.580013"
       y="406.88779"
       width="236.11896"
       height="66.304123"
       id="rect6142" />
    <marker
       style="overflow:visible"
       id="Arrow1Send"
       refX="0"
       refY="0"
       orient="auto">
      <path
         transform="matrix(-0.2,0,0,-0.2,-1.2,0)"
         style="fill:context-stroke;fill-rule:evenodd;stroke:context-stroke;stroke-width:1pt"
         d="M 0,0 5,-5 -12.5,0 5,5 Z"
         id="path1467" />
    </marker>
    <marker
       style="overflow:visible"
       id="Arrow1Send-2"
       refX="0"
       refY="0"
       orient="auto">
      <path
         transform="matrix(-0.2,0,0,-0.2,-1.2,0)"
         style="fill:context-stroke;fill-rule:evenodd;stroke:context-stroke;stroke-width:1pt"
         d="M 0,0 5,-5 -12.5,0 5,5 Z"
         id="path1467-8" />
    </marker>
    <marker
       style="overflow:visible"
       id="Arrow1Send-9"
       refX="0"
       refY="0"
       orient="auto">
      <path
         transform="matrix(-0.2,0,0,-0.2,-1.2,0)"
         style="fill:context-stroke;fill-rule:evenodd;stroke:context-stroke;stroke-width:1pt"
         d="M 0,0 5,-5 -12.5,0 5,5 Z"
         id="path1467-1" />
    </marker>
    <rect
       x="-68.338058"
       y="515.13147"
       width="304.65668"
       height="56.490879"
       id="rect37847" />
    <marker
       style="overflow:visible"
       id="Arrow1Send-3"
       refX="0"
       refY="0"
       orient="auto">
      <path
         transform="matrix(-0.2,0,0,-0.2,-1.2,0)"
         style="fill:context-stroke;fill-rule:evenodd;stroke:context-stroke;stroke-width:1pt"
         d="M 0,0 5,-5 -12.5,0 5,5 Z"
         id="path1467-18" />
    </marker>
    <marker
       style="overflow:visible"
       id="Arrow1Send-5"
       refX="0"
       refY="0"
       orient="auto">
      <path
         transform="matrix(-0.2,0,0,-0.2,-1.2,0)"
         style="fill:context-stroke;fill-rule:evenodd;stroke:context-stroke;stroke-width:1pt"
         d="M 0,0 5,-5 -12.5,0 5,5 Z"
         id="path1467-2" />
    </marker>
    <marker
       style="overflow:visible"
       id="Arrow1Send-8"
       refX="0"
       refY="0"
       orient="auto">
      <path
         transform="matrix(-0.2,0,0,-0.2,-1.2,0)"
         style="fill:context-stroke;fill-rule:evenodd;stroke:context-stroke;stroke-width:1pt"
         d="M 0,0 5,-5 -12.5,0 5,5 Z"
         id="path1467-27" />
    </marker>
    <marker
       style="overflow:visible"
       id="Arrow1Send-31"
       refX="0"
       refY="0"
       orient="auto">
      <path
         transform="matrix(-0.2,0,0,-0.2,-1.2,0)"
         style="fill:context-stroke;fill-rule:evenodd;stroke:context-stroke;stroke-width:1pt"
         d="M 0,0 5,-5 -12.5,0 5,5 Z"
         id="path1467-6" />
    </marker>
    <marker
       style="overflow:visible"
       id="Arrow1Send-21"
       refX="0"
       refY="0"
       orient="auto">
      <path
         transform="matrix(-0.2,0,0,-0.2,-1.2,0)"
         style="fill:context-stroke;fill-rule:evenodd;stroke:context-stroke;stroke-width:1pt"
         d="M 0,0 5,-5 -12.5,0 5,5 Z"
         id="path1467-10" />
    </marker>
    <marker
       style="overflow:visible"
       id="Arrow1Send-54"
       refX="0"
       refY="0"
       orient="auto">
      <path
         transform="matrix(-0.2,0,0,-0.2,-1.2,0)"
         style="fill:context-stroke;fill-rule:evenodd;stroke:context-stroke;stroke-width:1pt"
         d="M 0,0 5,-5 -12.5,0 5,5 Z"
         id="path1467-7" />
    </marker>
  </defs>
  <g
     id="layer1"
     transform="translate(40.176908,-73.766607)">
    <path
       style="fill:none;stroke:#40abd6;stroke-width:0.7;stroke-linecap:butt;stroke-linejoin:miter;stroke-miterlimit:4;stroke-dasharray:none;stroke-opacity:1"
       d="M 136.99836,136.32989 V 116.96068"
       id="path69568" />
    <path
       style="fill:none;stroke:#175c00;stroke-width:1;stroke-linecap:butt;stroke-linejoin:miter;stroke-miterlimit:4;stroke-dasharray:none;stroke-opacity:1"
       d="m 89.116984,107.31467 v 11.27912"
       id="path866-6" />
    <path
       style="fill:none;stroke:#175c00;stroke-width:1;stroke-linecap:butt;stroke-linejoin:miter;stroke-miterlimit:4;stroke-dasharray:none;stroke-opacity:1"
       d="m -13.346723,107.91978 v 11.22421 H 123.26081 v -11.71728"
       id="path864" />
    <path
       style="fill:none;stroke:#175c00;stroke-width:1;stroke-linecap:butt;stroke-linejoin:miter;stroke-miterlimit:4;stroke-dasharray:none;stroke-opacity:1"
       d="m 54.874226,107.89996 v 11.27912"
       id="path866" />
    <path
       style="fill:none;stroke:#175c00;stroke-width:1;stroke-linecap:butt;stroke-linejoin:miter;stroke-miterlimit:4;stroke-dasharray:none;stroke-opacity:1"
       d="m 19.461616,107.89996 v 11.23686"
       id="path868" />
    <text
       xml:space="preserve"
       style="font-style:normal;font-weight:normal;font-size:9.87778px;line-height:1.25;font-family:sans-serif;letter-spacing:0px;word-spacing:0px;writing-mode:lr-tb;fill:#175c00;fill-opacity:1;stroke:none;stroke-width:0.264583"
       x="11.238412"
       y="129.13492"
       id="text880"><tspan
         id="tspan878"
         x="11.238412"
         y="129.13492"
         style="fill:#175c00;fill-opacity:1;stroke-width:0.264583">AHB</tspan></text>
    <g
       transform="translate(304.15328,158.16481)"
       id="g946">
      <rect
         y="-80.220238"
         x="-332.61905"
         height="29.482143"
         width="29.482143"
         id="rect831"
         style="opacity:1;fill:none;fill-opacity:0.627451;fill-rule:nonzero;stroke:#000000;stroke-width:1;stroke-miterlimit:4;stroke-dasharray:none;stroke-dashoffset:0;stroke-opacity:1;paint-order:stroke fill markers" />
      <text
         id="text876"
         y="-65.783028"
         x="-328.62393"
         style="font-style:normal;font-weight:normal;font-size:25.4px;line-height:1.25;font-family:sans-serif;letter-spacing:0px;word-spacing:0px;writing-mode:lr-tb;fill:#000000;fill-opacity:1;stroke:none;stroke-width:0.264583"
         xml:space="preserve"><tspan
           style="font-size:9.87778px;stroke-width:0.264583"
           y="-65.783028"
           x="-328.62393"
           id="tspan874">Core</tspan></text>
      <rect
         y="-59.715027"
         x="-332.61905"
         height="8.9769363"
         width="29.482157"
         id="rect920"
         style="opacity:1;fill:none;fill-opacity:0.627451;fill-rule:nonzero;stroke:#000000;stroke-width:0.5;stroke-miterlimit:4;stroke-dasharray:none;stroke-dashoffset:0;stroke-opacity:1;paint-order:stroke fill markers" />
      <text
         id="text924"
         y="-53.38393"
         x="-321.94122"
         style="font-style:normal;font-weight:normal;font-size:9.87778px;line-height:1.25;font-family:sans-serif;letter-spacing:0px;word-spacing:0px;writing-mode:lr-tb;fill:#000000;fill-opacity:1;stroke:none;stroke-width:0.264583"
         xml:space="preserve"><tspan
           style="font-size:6.35px;stroke-width:0.264583"
           y="-53.38393"
           x="-321.94122"
           id="tspan922">L1</tspan></text>
    </g>
    <g
       transform="translate(338.4735,158.16481)"
       id="g946-2">
      <rect
         y="-80.220238"
         x="-332.61905"
         height="29.482143"
         width="29.482143"
         id="rect831-70"
         style="opacity:1;fill:none;fill-opacity:0.627451;fill-rule:nonzero;stroke:#000000;stroke-width:1;stroke-miterlimit:4;stroke-dasharray:none;stroke-dashoffset:0;stroke-opacity:1;paint-order:stroke fill markers" />
      <text
         id="text876-93"
         y="-65.783028"
         x="-328.62393"
         style="font-style:normal;font-weight:normal;font-size:25.4px;line-height:1.25;font-family:sans-serif;letter-spacing:0px;word-spacing:0px;writing-mode:lr-tb;fill:#000000;fill-opacity:1;stroke:none;stroke-width:0.264583"
         xml:space="preserve"><tspan
           style="font-size:9.87778px;stroke-width:0.264583"
           y="-65.783028"
           x="-328.62393"
           id="tspan874-6">Core</tspan></text>
      <rect
         y="-59.715027"
         x="-332.61905"
         height="8.9769363"
         width="29.482157"
         id="rect920-0"
         style="opacity:1;fill:none;fill-opacity:0.627451;fill-rule:nonzero;stroke:#000000;stroke-width:0.5;stroke-miterlimit:4;stroke-dasharray:none;stroke-dashoffset:0;stroke-opacity:1;paint-order:stroke fill markers" />
      <text
         id="text924-6"
         y="-53.38393"
         x="-321.94122"
         style="font-style:normal;font-weight:normal;font-size:9.87778px;line-height:1.25;font-family:sans-serif;letter-spacing:0px;word-spacing:0px;writing-mode:lr-tb;fill:#000000;fill-opacity:1;stroke:none;stroke-width:0.264583"
         xml:space="preserve"><tspan
           style="font-size:6.35px;stroke-width:0.264583"
           y="-53.38393"
           x="-321.94122"
           id="tspan922-2">L1</tspan></text>
    </g>
    <g
       transform="translate(372.79372,158.1648)"
       id="g946-6">
      <rect
         y="-80.220238"
         x="-332.61905"
         height="29.482143"
         width="29.482143"
         id="rect831-1"
         style="opacity:1;fill:none;fill-opacity:0.627451;fill-rule:nonzero;stroke:#000000;stroke-width:1;stroke-miterlimit:4;stroke-dasharray:none;stroke-dashoffset:0;stroke-opacity:1;paint-order:stroke fill markers" />
      <text
         id="text876-8"
         y="-65.783028"
         x="-328.62393"
         style="font-style:normal;font-weight:normal;font-size:25.4px;line-height:1.25;font-family:sans-serif;letter-spacing:0px;word-spacing:0px;writing-mode:lr-tb;fill:#000000;fill-opacity:1;stroke:none;stroke-width:0.264583"
         xml:space="preserve"><tspan
           style="font-size:9.87778px;stroke-width:0.264583"
           y="-65.783028"
           x="-328.62393"
           id="tspan874-7">Core</tspan></text>
      <rect
         y="-59.715027"
         x="-332.61905"
         height="8.9769363"
         width="29.482157"
         id="rect920-9"
         style="opacity:1;fill:none;fill-opacity:0.627451;fill-rule:nonzero;stroke:#000000;stroke-width:0.5;stroke-miterlimit:4;stroke-dasharray:none;stroke-dashoffset:0;stroke-opacity:1;paint-order:stroke fill markers" />
      <text
         id="text924-2"
         y="-53.38393"
         x="-321.94122"
         style="font-style:normal;font-weight:normal;font-size:9.87778px;line-height:1.25;font-family:sans-serif;letter-spacing:0px;word-spacing:0px;writing-mode:lr-tb;fill:#000000;fill-opacity:1;stroke:none;stroke-width:0.264583"
         xml:space="preserve"><tspan
           style="font-size:6.35px;stroke-width:0.264583"
           y="-53.38393"
           x="-321.94122"
           id="tspan922-0">L1</tspan></text>
    </g>
    <g
       transform="translate(407.11394,158.1648)"
       id="g946-23">
      <rect
         y="-80.220238"
         x="-332.61905"
         height="29.482143"
         width="29.482143"
         id="rect831-7"
         style="opacity:1;fill:none;fill-opacity:0.627451;fill-rule:nonzero;stroke:#000000;stroke-width:1;stroke-miterlimit:4;stroke-dasharray:none;stroke-dashoffset:0;stroke-opacity:1;paint-order:stroke fill markers" />
      <text
         id="text876-5"
         y="-65.783028"
         x="-328.62393"
         style="font-style:normal;font-weight:normal;font-size:25.4px;line-height:1.25;font-family:sans-serif;letter-spacing:0px;word-spacing:0px;writing-mode:lr-tb;fill:#000000;fill-opacity:1;stroke:none;stroke-width:0.264583"
         xml:space="preserve"><tspan
           style="font-size:9.87778px;stroke-width:0.264583"
           y="-65.783028"
           x="-328.62393"
           id="tspan874-9">Core</tspan></text>
      <rect
         y="-59.715027"
         x="-332.61905"
         height="8.9769363"
         width="29.482157"
         id="rect920-2"
         style="opacity:1;fill:none;fill-opacity:0.627451;fill-rule:nonzero;stroke:#000000;stroke-width:0.5;stroke-miterlimit:4;stroke-dasharray:none;stroke-dashoffset:0;stroke-opacity:1;paint-order:stroke fill markers" />
      <text
         id="text924-28"
         y="-53.38393"
         x="-321.94122"
         style="font-style:normal;font-weight:normal;font-size:9.87778px;line-height:1.25;font-family:sans-serif;letter-spacing:0px;word-spacing:0px;writing-mode:lr-tb;fill:#000000;fill-opacity:1;stroke:none;stroke-width:0.264583"
         xml:space="preserve"><tspan
           style="font-size:6.35px;stroke-width:0.264583"
           y="-53.38393"
           x="-321.94122"
           id="tspan922-9">L1</tspan></text>
    </g>
    <rect
       style="fill:none;fill-opacity:0.627451;fill-rule:nonzero;stroke:#626060;stroke-width:0.431589;stroke-miterlimit:4;stroke-dasharray:none;stroke-dashoffset:0;stroke-opacity:1;paint-order:stroke fill markers"
       id="rect1017"
       width="53.848175"
       height="22.127504"
       x="-37.353577"
       y="142.12302" />
    <text
       xml:space="preserve"
       style="font-style:normal;font-weight:normal;font-size:9.87778px;line-height:1.25;font-family:sans-serif;letter-spacing:0px;word-spacing:0px;writing-mode:lr-tb;fill:#626060;fill-opacity:1;stroke:none;stroke-width:0.265;stroke-miterlimit:4;stroke-dasharray:none"
       x="-32.74131"
       y="156.86923"
       id="text1021"><tspan
         id="tspan1019"
         x="-32.74131"
         y="156.86923"
         style="fill:#626060;fill-opacity:1;stroke-width:0.265;stroke-miterlimit:4;stroke-dasharray:none">L2 cache</tspan></text>
    <path
       style="fill:none;stroke:#175c00;stroke-width:1;stroke-linecap:butt;stroke-linejoin:miter;stroke-miterlimit:4;stroke-dasharray:none;stroke-opacity:1"
       d="m -10.429489,119.14399 v 22.77255"
       id="path1025" />
    <path
       style="fill:none;stroke:#175c00;stroke-width:1;stroke-linecap:butt;stroke-linejoin:miter;stroke-miterlimit:4;stroke-dasharray:none;stroke-opacity:1"
       d="m 113.65328,119.144 v 0 l 59.71874,-1e-5"
       id="path1147" />
    <path
       style="fill:none;stroke:#175c00;stroke-width:1;stroke-linecap:butt;stroke-linejoin:miter;stroke-miterlimit:4;stroke-dasharray:none;stroke-opacity:1"
       d="m 139.44323,119.14399 v 17.10995"
       id="path1025-1-3" />
    <rect
       style="fill:none;fill-opacity:1;fill-rule:nonzero;stroke:#40abd6;stroke-width:0.5;stroke-miterlimit:4;stroke-dasharray:none;stroke-dashoffset:0;stroke-opacity:1;paint-order:stroke fill markers"
       id="rect967"
       width="51.384918"
       height="19.148291"
       x="204.95969"
       y="136.08022" />
    <flowRoot
       xml:space="preserve"
       id="flowRoot972"
       style="font-style:normal;font-weight:normal;font-size:37.3333px;line-height:1.25;font-family:sans-serif;letter-spacing:0px;word-spacing:0px;writing-mode:lr-tb;fill:#40abd6;fill-opacity:1;stroke:none"
       transform="matrix(0.26458333,0,0,0.26458333,372.81466,21.24594)"><flowRegion
         id="flowRegion974"
         style="fill:#40abd6;fill-opacity:1"><rect
           id="rect976"
           width="181.20515"
           height="50.184761"
           x="-601.42859"
           y="451.09113"
           style="fill:#40abd6;fill-opacity:1" /></flowRegion><flowPara
         id="flowPara978">safeSU</flowPara></flowRoot>
    <g
       id="g15017"
       transform="translate(213.24208,70.585318)">
      <rect
         style="fill:none;fill-opacity:0.337255;stroke:#175c00;stroke-width:1.06635;stroke-miterlimit:4;stroke-dasharray:none;stroke-opacity:1"
         id="rect41540"
         width="43.731632"
         height="17.734489"
         x="-95.664665"
         y="66.201797"
         ry="0.031552091" />
      <text
         xml:space="preserve"
         style="font-style:normal;font-weight:normal;font-size:7.76111px;line-height:1.25;font-family:sans-serif;letter-spacing:0px;word-spacing:0px;writing-mode:lr-tb;fill:#175c00;fill-opacity:1;stroke:none;stroke-width:0.264583"
         x="-74.031914"
         y="72.980972"
         id="text880-4"><tspan
           id="tspan878-68"
           x="-74.031914"
           y="72.980972"
           style="font-size:7.76111px;text-align:center;text-anchor:middle;fill:#175c00;fill-opacity:1;stroke-width:0.264583">AHB</tspan><tspan
           x="-74.031914"
           y="82.682358"
           style="font-size:7.76111px;text-align:center;text-anchor:middle;fill:#175c00;fill-opacity:1;stroke-width:0.264583"
           id="tspan43863">Arbiter</tspan></text>
    </g>
    <text
       xml:space="preserve"
       transform="matrix(0.26458333,0,0,0.26458333,153.41292,29.734036)"
       id="text6140"
       style="font-style:normal;font-weight:normal;font-size:24px;line-height:1.25;font-family:sans-serif;white-space:pre;shape-inside:url(#rect6142);display:inline;fill:#40aad6;fill-opacity:0.827451;stroke:none"><tspan
         x="60.580078"
         y="428.7846"
         id="tspan1">HQ control</tspan></text>
    <path
       style="fill:none;stroke:#40abd6;stroke-width:0.7;stroke-linecap:butt;stroke-linejoin:miter;stroke-miterlimit:4;stroke-dasharray:none;stroke-opacity:1;marker-end:url(#Arrow1Send)"
       d="M 105.08443,116.57116 H -10.407978 v -8.36651"
       id="path13298" />
    <path
       style="fill:none;stroke:#40abd6;stroke-width:0.7;stroke-linecap:butt;stroke-linejoin:miter;stroke-miterlimit:4;stroke-dasharray:none;stroke-opacity:1;marker-end:url(#Arrow1Send)"
       d="m 22.700972,116.57116 v -8.36651"
       id="path13300" />
    <path
       style="fill:none;stroke:#40abd6;stroke-width:0.7;stroke-linecap:butt;stroke-linejoin:miter;stroke-miterlimit:4;stroke-dasharray:none;stroke-opacity:1;marker-end:url(#Arrow1Send)"
       d="m 58.153417,116.57116 -10e-7,-8.36651"
       id="path13302" />
    <path
       style="fill:none;stroke:#40abd6;stroke-width:0.7;stroke-linecap:butt;stroke-linejoin:miter;stroke-miterlimit:4;stroke-dasharray:none;stroke-opacity:1;marker-end:url(#Arrow1Send)"
       d="m 92.568733,116.45912 v -8.3665"
       id="path13304" />
    <rect
       style="fill:none;fill-opacity:1;stroke:#000000;stroke-width:0.499999;stroke-miterlimit:4;stroke-dasharray:none;stroke-dashoffset:0;stroke-opacity:1"
       id="rect21308"
       width="355.28406"
       height="92.375702"
       x="-39.92691"
       y="74.016602" />
    <rect
       style="fill:none;fill-opacity:0.627451;fill-rule:nonzero;stroke:#626060;stroke-width:0.432;stroke-miterlimit:4;stroke-dasharray:none;stroke-dashoffset:0;stroke-opacity:1;paint-order:stroke fill markers"
       id="rect1017-4"
       width="46.780239"
       height="22.127504"
       x="23.028606"
       y="142.12302" />
    <path
       style="fill:none;stroke:#40abd6;stroke-width:0.5;stroke-linecap:butt;stroke-linejoin:miter;stroke-miterlimit:4;stroke-dasharray:none;stroke-opacity:1"
       d="m 69.099869,116.57116 h 4.234519"
       id="path3971" />
    <text
       xml:space="preserve"
       transform="matrix(0.26458333,0,0,0.26458333,8.3819598,4.9117598)"
       id="text5677"
       style="font-style:normal;font-weight:normal;font-size:37.3333px;line-height:1.25;font-family:sans-serif;white-space:pre;shape-inside:url(#rect5679);display:inline;fill:#626060;fill-opacity:1;stroke:none"><tspan
         x="75.037109"
         y="571.21851"
         id="tspan2">AXI_lite</tspan></text>
    <path
       style="fill:none;stroke:#175c00;stroke-width:1;stroke-linecap:butt;stroke-linejoin:miter;stroke-miterlimit:4;stroke-dasharray:none;stroke-opacity:1"
       d="m 46.418726,119.35047 v 22.77255"
       id="path1025-4" />
    <g
       transform="translate(441.43417,158.1648)"
       id="g946-23-3">
      <rect
         y="-80.220238"
         x="-332.61905"
         height="29.482143"
         width="29.482143"
         id="rect831-7-4"
         style="opacity:1;fill:none;fill-opacity:0.627451;fill-rule:nonzero;stroke:#000000;stroke-width:1;stroke-miterlimit:4;stroke-dasharray:none;stroke-dashoffset:0;stroke-opacity:1;paint-order:stroke fill markers" />
      <text
         id="text876-5-2"
         y="-65.783028"
         x="-328.62393"
         style="font-style:normal;font-weight:normal;font-size:25.4px;line-height:1.25;font-family:sans-serif;letter-spacing:0px;word-spacing:0px;writing-mode:lr-tb;fill:#000000;fill-opacity:1;stroke:none;stroke-width:0.264583"
         xml:space="preserve"><tspan
           style="font-size:9.87778px;stroke-width:0.264583"
           y="-65.783028"
           x="-328.62393"
           id="tspan874-9-4">Core</tspan></text>
      <rect
         y="-59.715027"
         x="-332.61905"
         height="8.9769363"
         width="29.482157"
         id="rect920-2-2"
         style="opacity:1;fill:none;fill-opacity:0.627451;fill-rule:nonzero;stroke:#000000;stroke-width:0.5;stroke-miterlimit:4;stroke-dasharray:none;stroke-dashoffset:0;stroke-opacity:1;paint-order:stroke fill markers" />
      <text
         id="text924-28-0"
         y="-53.38393"
         x="-321.94122"
         style="font-style:normal;font-weight:normal;font-size:9.87778px;line-height:1.25;font-family:sans-serif;letter-spacing:0px;word-spacing:0px;writing-mode:lr-tb;fill:#000000;fill-opacity:1;stroke:none;stroke-width:0.264583"
         xml:space="preserve"><tspan
           style="font-size:6.35px;stroke-width:0.264583"
           y="-53.38393"
           x="-321.94122"
           id="tspan922-9-6">L1</tspan></text>
    </g>
    <g
       transform="translate(475.75439,158.1648)"
       id="g946-23-7">
      <rect
         y="-80.220238"
         x="-332.61905"
         height="29.482143"
         width="29.482143"
         id="rect831-7-3"
         style="opacity:1;fill:none;fill-opacity:0.627451;fill-rule:nonzero;stroke:#000000;stroke-width:1;stroke-miterlimit:4;stroke-dasharray:none;stroke-dashoffset:0;stroke-opacity:1;paint-order:stroke fill markers" />
      <text
         id="text876-5-14"
         y="-65.783028"
         x="-328.62393"
         style="font-style:normal;font-weight:normal;font-size:25.4px;line-height:1.25;font-family:sans-serif;letter-spacing:0px;word-spacing:0px;writing-mode:lr-tb;fill:#000000;fill-opacity:1;stroke:none;stroke-width:0.264583"
         xml:space="preserve"><tspan
           style="font-size:9.87778px;stroke-width:0.264583"
           y="-65.783028"
           x="-328.62393"
           id="tspan874-9-22">Core</tspan></text>
      <rect
         y="-59.715027"
         x="-332.61905"
         height="8.9769363"
         width="29.482157"
         id="rect920-2-4"
         style="opacity:1;fill:none;fill-opacity:0.627451;fill-rule:nonzero;stroke:#000000;stroke-width:0.5;stroke-miterlimit:4;stroke-dasharray:none;stroke-dashoffset:0;stroke-opacity:1;paint-order:stroke fill markers" />
      <text
         id="text924-28-7"
         y="-53.38393"
         x="-321.94122"
         style="font-style:normal;font-weight:normal;font-size:9.87778px;line-height:1.25;font-family:sans-serif;letter-spacing:0px;word-spacing:0px;writing-mode:lr-tb;fill:#000000;fill-opacity:1;stroke:none;stroke-width:0.264583"
         xml:space="preserve"><tspan
           style="font-size:6.35px;stroke-width:0.264583"
           y="-53.38393"
           x="-321.94122"
           id="tspan922-9-0">L1</tspan></text>
    </g>
    <path
       style="fill:none;stroke:#175c00;stroke-width:1;stroke-linecap:butt;stroke-linejoin:miter;stroke-miterlimit:4;stroke-dasharray:none;stroke-opacity:1"
       d="m 157.43501,107.94132 v 11.20267"
       id="path19949" />
    <path
       style="fill:none;stroke:#40abd6;stroke-width:0.7;stroke-linecap:butt;stroke-linejoin:miter;stroke-miterlimit:4;stroke-dasharray:none;stroke-opacity:1;marker-end:url(#Arrow1Send-2)"
       d="m 126.03912,116.57116 v -8.3665"
       id="path13304-1" />
    <path
       style="fill:none;stroke:#40abd6;stroke-width:0.7;stroke-linecap:butt;stroke-linejoin:miter;stroke-miterlimit:4;stroke-dasharray:none;stroke-opacity:1;marker-end:url(#Arrow1Send-9)"
       d="m 160.47913,116.57116 v -8.3665"
       id="path13304-5" />
    <path
       style="fill:none;stroke:#40abd6;stroke-width:0.7;stroke-linecap:butt;stroke-linejoin:miter;stroke-miterlimit:4;stroke-dasharray:none;stroke-opacity:1"
       d="m 105.08443,116.57116 v 0 h 55.3947"
       id="path20611" />
    <rect
       style="fill:none;fill-opacity:1;stroke:#626060;stroke-width:0.432;stroke-miterlimit:4;stroke-dasharray:none;stroke-opacity:1"
       id="rect24169"
       width="22.111942"
       height="29.79776"
       x="78.159767"
       y="210.08665" />
    <path
       style="fill:none;stroke:#626060;stroke-width:0.432;stroke-linecap:butt;stroke-linejoin:miter;stroke-miterlimit:4;stroke-dasharray:none;stroke-opacity:1"
       d="m -10.429489,164.47407 v 86.88766 H 108.97562"
       id="path24399" />
    <path
       style="fill:none;stroke:#626060;stroke-width:0.264583px;stroke-linecap:butt;stroke-linejoin:miter;stroke-opacity:1"
       d="m 100.41263,225.13804 h 8.62879"
       id="path24514" />
    <text
       xml:space="preserve"
       style="font-style:normal;font-weight:normal;font-size:9.87778px;line-height:1.25;font-family:sans-serif;letter-spacing:0px;word-spacing:0px;writing-mode:lr-tb;fill:#626060;fill-opacity:1;stroke:none;stroke-width:0.265;stroke-miterlimit:4;stroke-dasharray:none"
       x="-237.69449"
       y="92.898201"
       id="text1021-4-2"
       transform="rotate(-90)"><tspan
         id="tspan1019-7-8"
         x="-237.69449"
         y="92.898201"
         style="fill:#626060;fill-opacity:1;stroke-width:0.265;stroke-miterlimit:4;stroke-dasharray:none">Accel</tspan></text>
    <text
       xml:space="preserve"
       style="font-style:normal;font-weight:normal;font-size:9.87778px;line-height:1.25;font-family:sans-serif;letter-spacing:0px;word-spacing:0px;writing-mode:lr-tb;fill:#626060;fill-opacity:1;stroke:none;stroke-width:0.265;stroke-miterlimit:4;stroke-dasharray:none"
       x="-260.4126"
       y="123.72215"
       id="text1021-44-8"
       transform="rotate(-90)"><tspan
         id="tspan1019-75-1"
         x="-260.4126"
         y="123.72215"
         style="fill:#626060;fill-opacity:1;stroke-width:0.265;stroke-miterlimit:4;stroke-dasharray:none">AXI xbar</tspan></text>
    <rect
       style="fill:none;fill-opacity:0.627451;fill-rule:nonzero;stroke:#626060;stroke-width:0.431589;stroke-miterlimit:4;stroke-dasharray:none;stroke-dashoffset:0;stroke-opacity:1;paint-order:stroke fill markers"
       id="rect1017-7"
       width="57.207169"
       height="17.095205"
       x="-268.07437"
       y="183.60446"
       transform="rotate(-90)" />
    <text
       xml:space="preserve"
       style="font-style:normal;font-weight:normal;font-size:9.87778px;line-height:1.25;font-family:sans-serif;letter-spacing:0px;word-spacing:0px;writing-mode:lr-tb;fill:#626060;fill-opacity:1;stroke:none;stroke-width:0.264583"
       x="-261.22772"
       y="194.65317"
       id="text1021-5"
       transform="rotate(-90)"><tspan
         id="tspan1019-8"
         x="-261.22772"
         y="194.65317"
         style="fill:#626060;fill-opacity:1;stroke-width:0.264583">Mem ctrl</tspan></text>
    <text
       xml:space="preserve"
       transform="matrix(0.26458333,0,0,0.26458333,220.42019,84.663892)"
       id="text37845"
       style="font-style:normal;font-weight:normal;font-size:37.3333px;line-height:1.25;font-family:sans-serif;white-space:pre;shape-inside:url(#rect37847);display:inline;fill:#626060;fill-opacity:1;stroke:none"><tspan
         x="-68.337891"
         y="549.19116"
         id="tspan3">To DDR4</tspan></text>
    <rect
       style="fill:none;fill-opacity:0.627451;fill-rule:nonzero;stroke:#626060;stroke-width:0.431589;stroke-miterlimit:4;stroke-dasharray:none;stroke-dashoffset:0;stroke-opacity:1;paint-order:stroke fill markers"
       id="rect1017-7-7"
       width="57.20718"
       height="22.127502"
       x="-268.07437"
       y="108.97585"
       transform="rotate(-90)" />
    <path
       style="fill:#626060;fill-opacity:1;stroke:#626060;stroke-width:0.264583px;stroke-linecap:butt;stroke-linejoin:miter;stroke-opacity:1"
       d="m 200.9949,239.47127 h 32.60022"
       id="path24514-7-5" />
    <path
       style="fill:none;stroke:#4057ff;stroke-width:0.7;stroke-linecap:butt;stroke-linejoin:miter;stroke-miterlimit:4;stroke-dasharray:none;stroke-opacity:1;marker-end:url(#Arrow1Send)"
       d="m -16.74231,107.31198 v 9.57952"
       id="path53813" />
    <path
       style="fill:none;stroke:#4057ff;stroke-width:0.7;stroke-linecap:butt;stroke-linejoin:miter;stroke-miterlimit:4;stroke-dasharray:none;stroke-opacity:1;marker-end:url(#Arrow1Send-3)"
       d="m 16.368046,107.31467 v 9.57952"
       id="path53813-6" />
    <path
       style="fill:none;stroke:#4057ff;stroke-width:0.7;stroke-linecap:butt;stroke-linejoin:miter;stroke-miterlimit:4;stroke-dasharray:none;stroke-opacity:1;marker-end:url(#Arrow1Send-5)"
       d="m 51.169506,107.31467 v 9.57952"
       id="path53813-63" />
    <path
       style="fill:none;stroke:#4057ff;stroke-width:0.7;stroke-linecap:butt;stroke-linejoin:miter;stroke-miterlimit:4;stroke-dasharray:none;stroke-opacity:1;marker-end:url(#Arrow1Send-8)"
       d="m 84.835014,107.20263 v 9.57952"
       id="path53813-3" />
    <path
       style="fill:none;stroke:#4057ff;stroke-width:0.7;stroke-linecap:butt;stroke-linejoin:miter;stroke-miterlimit:4;stroke-dasharray:none;stroke-opacity:1;marker-end:url(#Arrow1Send-31)"
       d="m 119.94628,107.31467 v 9.57952"
       id="path53813-4" />
    <path
       style="fill:none;stroke:#4057ff;stroke-width:0.7;stroke-linecap:butt;stroke-linejoin:miter;stroke-miterlimit:4;stroke-dasharray:none;stroke-opacity:1;marker-end:url(#Arrow1Send-21)"
       d="m 154.02486,107.31467 v 9.57952"
       id="path53813-0" />
    <path
       style="fill:none;stroke:#4057ff;stroke-width:0.7;stroke-linecap:butt;stroke-linejoin:miter;stroke-miterlimit:4;stroke-dasharray:none;stroke-opacity:1"
       d="M 154.07649,117.78417 H -16.749377"
       id="path54266" />
    <path
       style="fill:none;stroke:#4057ff;stroke-width:0.7;stroke-linecap:butt;stroke-linejoin:miter;stroke-miterlimit:4;stroke-dasharray:none;stroke-opacity:1;marker-end:url(#Arrow1Send-54)"
       d="m -8.397508,117.78417 v 23.59971"
       id="path53813-9" />
    <rect
       style="fill:none;fill-opacity:1;stroke:#4057ff;stroke-width:0.5;stroke-miterlimit:4;stroke-dasharray:none;stroke-dashoffset:0;stroke-opacity:1"
       id="rect60286"
       width="14.790534"
       height="57.207169"
       x="159.74467"
       y="210.86685" />
    <text
       xml:space="preserve"
       transform="matrix(0,-0.26458333,0.26458333,0,-70.061596,418.84585)"
       id="text63858"
       style="font-style:normal;font-weight:normal;font-size:32px;line-height:1.25;font-family:sans-serif;white-space:pre;shape-inside:url(#rect63860);display:inline;fill:#4057ff;fill-opacity:1;stroke:none;stroke-width:1.00157;stroke-miterlimit:4;stroke-dasharray:none"><tspan
         x="613.56055"
         y="919.09105"
         id="tspan4">Monitor</tspan></text>
    <rect
       style="fill:none;stroke:#40abd6;stroke-width:0.5;stroke-miterlimit:4;stroke-dasharray:none;stroke-opacity:1"
       id="rect7796"
       width="54.713497"
       height="25.824762"
       x="203.29539"
       y="77.694565" />
    <text
       xml:space="preserve"
       transform="matrix(0.26458333,0,0,0.26458333,12.38157,-59.766302)"
       id="text9854"
       style="font-style:normal;font-weight:normal;font-size:40px;line-height:1.25;font-family:sans-serif;white-space:pre;shape-inside:url(#rect9856);display:inline;fill:#40abd6;fill-opacity:1;stroke:none"
       x="97.65625"
       y="0"><tspan
         x="782.25488"
         y="555.12603"
         id="tspan6"><tspan
           style="text-align:center;text-anchor:middle"
           id="tspan5">CCS </tspan></tspan><tspan
         x="726.16113"
         y="605.12603"
         id="tspan8"><tspan
           style="text-align:center;text-anchor:middle"
           id="tspan7">generator</tspan></tspan></text>
    <path
       style="fill:none;stroke:#175c00;stroke-width:1;stroke-linecap:butt;stroke-linejoin:miter;stroke-miterlimit:4;stroke-dasharray:none;stroke-opacity:1"
       d="m 203.03611,89.137801 h -14.54679 v 30.006189 h -15.1173"
       id="path17443" />
    <path
       style="fill:none;stroke:#4057ff;stroke-width:0.7;stroke-linecap:butt;stroke-linejoin:miter;stroke-miterlimit:4;stroke-dasharray:none;stroke-opacity:1;marker-end:url(#marker13687)"
       d="m 174.61189,225.13804 h 5.67551 v -97.46671 h 14.8563 V 95.792188 l 6.96231,-7e-6"
       id="path20439" />
    <path
       style="fill:none;stroke:#40abd6;stroke-width:1;stroke-linecap:butt;stroke-linejoin:miter;stroke-miterlimit:4;stroke-dasharray:none;stroke-opacity:1;marker-end:url(#Arrow1Mend)"
       d="m 204.73839,146.00958 h -40.9322"
       id="path22916" />
    <path
       style="fill:none;stroke:#40abd6;stroke-width:1;stroke-linecap:butt;stroke-linejoin:miter;stroke-miterlimit:4;stroke-dasharray:none;stroke-opacity:1;marker-end:url(#Arrow1Mend)"
       d="m 230.65214,103.6846 v 30.25423"
       id="path31415" />
    <path
       style="fill:none;stroke:#4057ff;stroke-width:0.7;stroke-linecap:butt;stroke-linejoin:miter;stroke-miterlimit:4;stroke-dasharray:none;stroke-opacity:1"
       d="m 131.11065,236.42556 h 28.49062"
       id="path40141" />
    <path
       style="fill:none;stroke:#4057ff;stroke-width:0.7;stroke-linecap:butt;stroke-linejoin:miter;stroke-miterlimit:4;stroke-dasharray:1.4, 0.7;stroke-dashoffset:0;stroke-opacity:0.365079"
       d="M 174.54208,236.42556 H 159.60127"
       id="path40143" />
    <path
       style="fill:none;stroke:#4057ff;stroke-width:0.7;stroke-linecap:butt;stroke-linejoin:miter;stroke-miterlimit:4;stroke-dasharray:none;stroke-opacity:1"
       d="m 174.54208,236.42556 h 9.00931"
       id="path40258" />
    <path
       style="fill:#4057ff;fill-opacity:1;stroke:none;stroke-width:0.0208529;stroke-miterlimit:4;stroke-dasharray:0.0417058, 0.0208529;stroke-dashoffset:0;stroke-opacity:1"
       d="m 167.6875,241.31783 c -0.0481,-0.0158 -0.0764,-0.0296 -0.0945,-0.0462 -0.007,-0.006 -0.64827,-0.64448 -1.42592,-1.41872 -0.96606,-0.96181 -1.41907,-1.4077 -1.43018,-1.40768 -0.009,1e-5 -0.0282,0.008 -0.043,0.0182 -0.23382,0.15904 -0.52627,0.28947 -0.8097,0.3611 -0.19998,0.0505 -0.31552,0.0656 -0.54431,0.0707 -0.20778,0.005 -0.27221,0.001 -0.45719,-0.0252 -0.12546,-0.0179 -0.20991,-0.0379 -0.39428,-0.0937 -0.0485,-0.0146 -0.14434,-0.0513 -0.19513,-0.0746 -0.0184,-0.008 -0.0355,-0.0153 -0.0379,-0.0153 -0.006,1e-5 -0.16076,-0.0773 -0.20162,-0.10026 -0.0929,-0.0522 -0.1777,-0.10649 -0.27147,-0.17385 -0.19347,-0.13899 -0.41703,-0.36462 -0.56212,-0.56731 -0.22675,-0.31679 -0.38082,-0.68422 -0.43754,-1.04352 -0.0325,-0.2061 -0.0363,-0.24812 -0.0367,-0.41372 -10e-4,-0.54376 0.15544,-1.03734 0.46946,-1.47876 0.0992,-0.13946 0.1985,-0.25086 0.35752,-0.40113 0.2375,-0.22441 0.56893,-0.41983 0.89844,-0.52974 0.28252,-0.0943 0.57042,-0.13826 0.85494,-0.13069 0.0824,0.002 0.17282,0.008 0.20101,0.012 0.0282,0.005 0.0921,0.0136 0.14192,0.0205 0.13919,0.0191 0.23247,0.0416 0.39032,0.0938 0.54531,0.18028 1.01314,0.53958 1.32547,1.01798 0.0212,0.0325 0.0445,0.0679 0.0519,0.0787 0.0401,0.0593 0.17008,0.31826 0.18587,0.37009 0.003,0.0104 0.0104,0.0303 0.016,0.0433 0.0536,0.12579 0.12178,0.4004 0.14269,0.57511 0.0607,0.50736 -0.0258,1.00166 -0.25383,1.45076 -0.0977,0.19234 -0.18922,0.32897 -0.35135,0.52435 -0.016,0.0192 -0.029,0.0377 -0.029,0.0409 1e-5,0.009 0.1776,0.18834 1.16435,1.1762 1.67539,1.67728 1.66745,1.66916 1.68754,1.72764 0.0228,0.0663 0.0189,0.12809 -0.012,0.18817 -0.031,0.0605 -0.0734,0.10256 -0.13436,0.13352 -0.0598,0.0303 -0.10983,0.0356 -0.16534,0.0174 z m -4.06485,-2.96853 c 0.31435,-0.0573 0.59654,-0.17927 0.84953,-0.36711 0.14249,-0.1058 0.28191,-0.24512 0.41645,-0.41613 0.0448,-0.0571 0.12729,-0.19379 0.1745,-0.28958 0.022,-0.0447 0.0432,-0.0872 0.0471,-0.0945 0.0157,-0.0292 0.0622,-0.1565 0.0817,-0.2234 0.0115,-0.0391 0.0239,-0.0816 0.0277,-0.0946 0.003,-0.013 0.0159,-0.0716 0.0267,-0.13011 0.0633,-0.34154 0.0326,-0.71577 -0.0852,-1.04025 -0.10165,-0.27976 -0.25868,-0.52474 -0.47044,-0.73375 -0.13184,-0.13013 -0.18782,-0.1761 -0.3236,-0.26569 -0.18099,-0.11943 -0.39595,-0.21355 -0.60618,-0.26543 -0.20541,-0.0507 -0.22174,-0.0523 -0.50059,-0.0509 l -0.25616,0.001 -0.12606,0.0279 c -0.2473,0.0548 -0.39332,0.10867 -0.58222,0.21485 -0.20085,0.11283 -0.41244,0.28485 -0.53993,0.43888 -0.0194,0.0234 -0.0389,0.0464 -0.0436,0.0513 -0.0223,0.0234 -0.12276,0.16556 -0.15514,0.21944 -0.11282,0.18774 -0.19345,0.38415 -0.24066,0.58621 -0.0685,0.2929 -0.0647,0.65168 0.0104,0.94403 0.062,0.24282 0.15953,0.45851 0.29595,0.65422 0.0838,0.12023 0.237,0.28829 0.3608,0.39581 0.0386,0.0335 0.16662,0.12687 0.21987,0.16032 0.17501,0.10994 0.40588,0.20647 0.60761,0.2541 0.16901,0.0399 0.28466,0.0508 0.50057,0.0472 0.16984,-0.002 0.2128,-0.006 0.31128,-0.0241 z"
       id="path53431" />
    <path
       style="fill:#626060;fill-opacity:1;stroke:none;stroke-width:0.0875001;stroke-miterlimit:4;stroke-dasharray:0.175, 0.0875001;stroke-dashoffset:0;stroke-opacity:1"
       d="m 259.17507,254.04379 c -0.008,-0.008 -0.062,-0.0199 -0.11954,-0.0261 -0.0575,-0.006 -0.12327,-0.0267 -0.1461,-0.0456 -0.0288,-0.0238 -0.0482,-0.0234 -0.0635,0.002 -0.0138,0.0223 -0.0465,0.005 -0.0869,-0.0463 -0.0357,-0.0452 -0.0844,-0.0746 -0.10835,-0.0654 -0.028,0.0108 -0.34144,-0.40701 -0.88275,-1.17681 -0.46165,-0.65647 -0.86305,-1.22217 -0.89202,-1.25711 -0.0515,-0.0621 -0.056,-0.0613 -0.2001,0.0352 -0.0967,0.0647 -0.17227,0.0926 -0.2195,0.0808 -0.0396,-0.01 -0.0823,-10e-4 -0.0949,0.0192 -0.0127,0.0204 -0.0508,0.0283 -0.085,0.0175 -0.0342,-0.0108 -0.0943,-0.002 -0.13367,0.0189 -0.0393,0.0212 -0.0808,0.0258 -0.0922,0.0103 -0.0114,-0.0155 -0.0579,-0.0312 -0.10334,-0.0349 -0.24387,-0.0199 -0.28491,-0.0306 -0.32605,-0.0857 -0.0246,-0.033 -0.0646,-0.0524 -0.0886,-0.0431 -0.0241,0.009 -0.0816,-0.0326 -0.12806,-0.0933 -0.0464,-0.0606 -0.10747,-0.10793 -0.13578,-0.10526 -0.033,0.003 -0.72626,-0.95334 -1.93548,-2.67046 -1.06922,-1.51828 -1.90423,-2.67359 -1.93073,-2.67133 -0.0257,0.002 -1.63137,1.10885 -3.56818,2.45925 -2.13064,1.48553 -3.5526,2.45639 -3.60027,2.45813 -0.0433,0.002 -0.10855,0.004 -0.14493,0.006 -0.11159,0.006 -0.30929,-0.0189 -0.33218,-0.0417 -0.0119,-0.0119 -0.041,-0.0141 -0.0647,-0.005 -0.0237,0.009 -0.0525,0.001 -0.064,-0.0172 -0.0116,-0.0186 -0.0413,-0.026 -0.0661,-0.0164 -0.0248,0.01 -0.0669,-0.0136 -0.0936,-0.0516 -0.0267,-0.038 -0.0692,-0.0611 -0.0945,-0.0515 -0.0313,0.0119 -0.32668,-0.38311 -0.92477,-1.23652 -0.48335,-0.68971 -0.89103,-1.25453 -0.90594,-1.25517 -0.0149,-5.3e-4 -0.092,0.0437 -0.17139,0.0985 -0.0845,0.0584 -0.15277,0.086 -0.1648,0.0666 -0.0132,-0.0213 -0.0522,-0.0175 -0.10953,0.0107 -0.0489,0.0241 -0.11576,0.0378 -0.14848,0.0305 -0.0327,-0.007 -0.0797,0.004 -0.10449,0.0242 -0.0323,0.0269 -0.0513,0.0273 -0.0673,0.002 -0.0123,-0.0198 -0.0508,-0.0269 -0.0857,-0.0157 -0.0348,0.0111 -0.0634,0.008 -0.0635,-0.007 -1e-4,-0.0149 -0.0537,-0.0297 -0.11915,-0.0329 -0.0654,-0.003 -0.1447,-0.0292 -0.17619,-0.0575 -0.0315,-0.0284 -0.0784,-0.0516 -0.10427,-0.0516 -0.0259,-2e-5 -0.0769,-0.0444 -0.11334,-0.0986 -0.0394,-0.0585 -0.0865,-0.0922 -0.11591,-0.0829 -0.069,0.0218 -6.53647,-9.16442 -6.49229,-9.22146 0.0207,-0.0267 -0.002,-0.0876 -0.0696,-0.18518 -0.0695,-0.10066 -0.0899,-0.156 -0.0661,-0.17986 0.0238,-0.0239 0.0169,-0.0609 -0.0223,-0.12057 -0.0372,-0.0565 -0.0432,-0.0861 -0.0175,-0.0862 0.0235,-4e-5 0.031,-0.0254 0.0189,-0.0634 -0.0111,-0.0348 -0.005,-0.0731 0.0147,-0.085 0.0192,-0.0119 0.0259,-0.0362 0.0149,-0.0539 -0.011,-0.0177 -0.003,-0.0526 0.0175,-0.0775 0.0266,-0.0322 0.0271,-0.0516 0.002,-0.0673 -0.0223,-0.0137 -0.005,-0.0465 0.0463,-0.0869 0.0452,-0.0357 0.0748,-0.0841 0.0657,-0.10751 -0.01,-0.0249 0.063,-0.0985 0.1748,-0.17718 0.10519,-0.074 7.0043,-4.88214 15.33137,-10.68475 10.6817,-7.4434 15.15163,-10.54067 15.17922,-10.51785 0.0265,0.0217 0.0632,0.0154 0.11261,-0.0194 0.0463,-0.0326 0.0883,-0.0407 0.11345,-0.022 0.022,0.0163 0.0883,0.0286 0.14745,0.0274 0.0591,-0.001 0.10753,0.0107 0.10756,0.0264 2e-5,0.0158 0.03,0.0208 0.0666,0.0111 0.0444,-0.0117 0.0782,0.004 0.10155,0.0476 0.0193,0.0358 0.06,0.06 0.0906,0.0538 0.0344,-0.007 0.0972,0.0425 0.16444,0.12941 0.0697,0.0902 0.13142,0.1379 0.17174,0.13289 0.0491,-0.006 0.70892,0.91055 3.00202,4.17032 1.61649,2.29797 2.96425,4.20297 2.99505,4.23332 0.0524,0.0517 0.23919,-0.0727 2.9295,-1.9505 1.58043,-1.10313 2.89951,-2.0203 2.93131,-2.03816 0.0531,-0.0298 0.0579,-0.009 0.0584,0.25837 v 0.29084 l -2.78932,1.9398 c -1.53416,1.06689 -2.79005,1.95128 -2.79093,1.96531 0,0.014 0.0377,0.0846 0.0856,0.15671 0.0696,0.10474 0.0792,0.14079 0.0477,0.17888 -0.0311,0.0377 -0.0267,0.067 0.0209,0.1393 0.0696,0.10584 0.0907,0.25449 0.0731,0.51616 -0.005,0.0682 -0.0212,0.12406 -0.0371,0.1241 -0.0159,2e-5 -0.0193,0.0299 -0.008,0.0663 0.014,0.044 0.004,0.073 -0.0307,0.0863 -0.0285,0.011 -0.0518,0.0459 -0.0517,0.0775 7e-5,0.0316 -0.0301,0.0849 -0.0671,0.11853 -0.037,0.0336 -0.0603,0.0788 -0.0519,0.10063 0.008,0.0218 -0.0515,0.0877 -0.133,0.1465 -0.0816,0.0588 -0.14164,0.12418 -0.13349,0.14529 0.008,0.0211 0.40511,0.5933 0.88212,1.27156 0.62421,0.8875 0.85802,1.24445 0.83416,1.27332 -0.0228,0.0275 -0.0183,0.0614 0.0146,0.10784 0.0262,0.0373 0.037,0.0784 0.0241,0.0914 -0.0243,0.0244 -0.0379,0.28279 -0.0148,0.28274 0.007,-1e-5 0.0779,-0.0449 0.15729,-0.0998 l 0.14436,-0.0997 1.22558,1.7425 c 0.75999,1.08054 1.21486,1.75574 1.19734,1.77737 -0.0167,0.0205 -0.003,0.0781 0.0359,0.13994 0.0353,0.0578 0.056,0.12648 0.046,0.15267 -0.0101,0.0262 -0.003,0.0766 0.0164,0.11193 0.019,0.0354 0.0249,0.0741 0.013,0.086 -0.0119,0.0119 -0.0227,0.0697 -0.0241,0.12842 -0.003,0.0587 -0.0143,0.12534 -0.0284,0.14811 -0.0143,0.0228 -0.0159,0.0574 -0.004,0.0771 0.0122,0.0196 -0.0103,0.0584 -0.0497,0.0862 -0.0395,0.0278 -0.064,0.071 -0.0543,0.096 0.0109,0.0279 -0.0398,0.085 -0.13073,0.14787 -0.0854,0.059 -0.14433,0.12405 -0.13896,0.15344 0.0132,0.0729 -3.4304,2.4728 -3.5116,2.4472 -0.0361,-0.0114 -0.11305,0.0206 -0.19807,0.0824 -0.095,0.0691 -0.1512,0.0909 -0.17769,0.069 -0.0257,-0.0213 -0.0622,-0.0156 -0.10864,0.0171 -0.0478,0.0336 -0.0769,0.0379 -0.092,0.0135 -0.0122,-0.0196 -0.0443,-0.0271 -0.0713,-0.0166 -0.0271,0.0104 -0.0658,0.009 -0.0861,-0.004 -0.0204,-0.0125 -0.0813,-0.0275 -0.13546,-0.0333 -0.0542,-0.006 -0.12309,-0.0327 -0.15304,-0.0597 -0.03,-0.027 -0.0788,-0.0491 -0.10861,-0.049 -0.0297,6e-5 -0.0694,-0.0283 -0.088,-0.063 -0.0193,-0.0361 -0.0589,-0.0575 -0.0922,-0.05 -0.0448,0.01 -0.32642,-0.36927 -1.21603,-1.63778 -0.63677,-0.90796 -1.17546,-1.65081 -1.19711,-1.65077 -0.0378,7e-5 -1.66933,1.12057 -1.76244,1.21038 -0.038,0.0366 0.14224,0.31033 1.12123,1.70279 0.73395,1.04393 1.15943,1.67757 1.14749,1.70883 -0.0103,0.0273 0.003,0.0836 0.0307,0.12514 0.0374,0.0568 0.0397,0.0788 0.009,0.0891 -0.0317,0.0107 -0.0314,0.031 0.003,0.0934 0.0306,0.0579 0.0332,0.11046 0.01,0.192 -0.0177,0.0617 -0.0251,0.12398 -0.0164,0.1383 0.009,0.0143 3e-5,0.0361 -0.0196,0.0483 -0.0196,0.0122 -0.027,0.0451 -0.0161,0.0731 0.0116,0.0304 -0.008,0.0704 -0.0494,0.0994 -0.038,0.0267 -0.0612,0.0688 -0.0516,0.0936 0.0106,0.0272 -0.0411,0.0873 -0.13015,0.15152 -0.0941,0.0679 -0.14224,0.12521 -0.13284,0.15837 0.0201,0.0712 -3.38545,2.43913 -3.51113,2.44127 -0.0476,7.9e-4 -0.14502,0.0414 -0.21651,0.0903 -0.0857,0.0586 -0.14277,0.0783 -0.16751,0.0578 -0.0241,-0.02 -0.0624,-0.0135 -0.10742,0.0182 -0.0478,0.0336 -0.0769,0.0379 -0.092,0.0135 -0.0122,-0.0196 -0.0412,-0.0283 -0.0645,-0.0193 -0.059,0.0228 -0.32046,-0.0443 -0.38367,-0.0984 -0.0288,-0.0246 -0.0744,-0.0447 -0.10137,-0.0447 -0.027,5e-5 -0.081,-0.0429 -0.12006,-0.0956 -0.0391,-0.0526 -0.0927,-0.0934 -0.11912,-0.0907 -0.0286,0.003 -0.50951,-0.6501 -1.18401,-1.60767 -0.82439,-1.17041 -1.15028,-1.60866 -1.18843,-1.59821 -0.0289,0.008 -0.44251,0.28648 -0.91913,0.61901 -0.80481,0.5615 -0.86397,0.6095 -0.82968,0.67332 0.0204,0.0378 0.54363,0.7882 1.16289,1.66757 0.73996,1.05074 1.11919,1.61661 1.1062,1.65063 -0.0109,0.0285 0.003,0.0861 0.0304,0.12796 0.0311,0.0472 0.0377,0.0839 0.0175,0.0965 -0.0212,0.0131 -0.0214,0.0413 0,0.0791 0.0337,0.0626 0.0294,0.19697 -0.008,0.25806 -0.0124,0.0204 -0.0138,0.0607 -0.003,0.0896 0.0114,0.0297 0.003,0.0526 -0.0185,0.0526 -0.0233,4e-5 -0.0307,0.0256 -0.0183,0.0642 0.014,0.0438 0,0.0751 -0.0442,0.0989 -0.0382,0.0205 -0.0589,0.0587 -0.0505,0.0931 0.01,0.0404 -0.0314,0.0887 -0.13462,0.15773 -0.0939,0.0627 -0.1432,0.11777 -0.13372,0.14908 0.0209,0.0691 -3.45012,2.49072 -3.50687,2.44663 -0.0268,-0.0208 -0.0894,0.003 -0.19167,0.074 -0.10649,0.0736 -0.16377,0.0951 -0.19174,0.072 -0.0272,-0.0224 -0.0598,-0.0183 -0.10245,0.013 -0.0344,0.0253 -0.0775,0.0367 -0.0957,0.0255 -0.0183,-0.0112 -0.0868,-0.0267 -0.15229,-0.0344 -0.0655,-0.008 -0.1446,-0.0174 -0.17577,-0.0215 -0.0312,-0.004 -0.0861,-0.0341 -0.12207,-0.0665 -0.036,-0.0324 -0.0788,-0.0506 -0.0953,-0.0404 -0.0164,0.0102 -0.0625,-0.0255 -0.10245,-0.0792 -0.0399,-0.0538 -0.0982,-0.098 -0.12946,-0.0982 -0.0374,-2.6e-4 -0.44789,-0.55624 -1.19497,-1.6183 -0.62592,-0.88986 -1.15567,-1.61713 -1.17715,-1.61617 -0.0214,0.001 -0.51472,0.33512 -1.09604,0.74259 -0.78189,0.54806 -1.05638,0.75747 -1.05482,0.8047 0.003,0.098 3.76336,5.42636 3.82916,5.42623 0.0303,-6e-5 0.0817,0.0293 0.1143,0.0651 0.0326,0.0359 0.0728,0.0569 0.0893,0.0466 0.0164,-0.0103 0.0493,-0.003 0.0727,0.0166 0.0308,0.0255 0.0603,0.0224 0.10593,-0.0112 0.0424,-0.0311 0.0761,-0.0358 0.10245,-0.014 0.0277,0.0229 3.11023,-2.10772 10.51198,-7.26576 5.76003,-4.01399 10.48012,-7.29818 10.48906,-7.2982 0.009,-2e-5 0.0159,0.1302 0.0153,0.28936 v 0.28939 l -9.92888,6.91465 c -5.4609,3.80306 -9.95646,6.93703 -9.99011,6.96438 -0.0578,0.047 -0.0135,0.1176 0.80952,1.28633 l 0.87071,1.2366 0.16471,0.0415 c 0.1447,0.0365 0.17536,0.0346 0.25283,-0.0151 0.24636,-0.158 1.71157,-1.1866 1.71241,-1.20215 0,-0.01 -0.29686,-0.44016 -0.66093,-0.95609 -0.44368,-0.6288 -0.65177,-0.95031 -0.63116,-0.97521 0.0196,-0.0237 0.013,-0.0625 -0.0185,-0.10719 -0.0459,-0.0653 -0.042,-0.0756 0.0585,-0.15219 0.20556,-0.15669 0.21403,-0.14864 0.96946,0.92279 0.37653,0.53403 0.69475,0.97081 0.7071,0.97062 0.0124,-2e-5 0.54269,-0.36375 1.17851,-0.80792 0.7171,-0.50097 1.15443,-0.82689 1.15189,-0.85845 -0.003,-0.028 -0.29861,-0.46954 -0.65852,-0.98124 -0.42188,-0.5998 -0.6567,-0.9629 -0.6609,-1.02193 -0.005,-0.0715 0.0206,-0.11109 0.11721,-0.18084 l 0.12369,-0.0893 0.0377,0.0701 c 0.0225,0.0418 0.0602,0.0642 0.0932,0.0555 0.0415,-0.0109 0.20888,0.20373 0.66188,0.84876 0.3335,0.47486 0.6392,0.90227 0.67931,0.9498 l 0.0729,0.0864 1.04042,-0.72761 c 0.57222,-0.40018 1.08794,-0.76143 1.14604,-0.80277 l 0.10565,-0.0752 -0.69461,-0.98786 c -0.42204,-0.60021 -0.6827,-0.99981 -0.66429,-1.01831 0.0167,-0.0167 0.0233,-0.0486 0.0148,-0.0709 -0.0204,-0.0525 0.20717,-0.22879 0.23577,-0.1827 0.0116,0.0187 0.0443,0.0299 0.0726,0.0248 0.0344,-0.006 0.27826,0.31253 0.73607,0.96203 0.37656,0.53419 0.69911,0.96907 0.71681,0.96639 0.0267,-0.004 2.19168,-1.49455 2.2702,-1.56294 0.0138,-0.012 -0.26908,-0.4371 -0.62851,-0.94468 -0.45503,-0.64257 -0.65247,-0.948 -0.65003,-1.00557 0.003,-0.0455 -0.0135,-0.10302 -0.034,-0.12787 -0.0568,-0.0684 0.1261,-0.20406 0.25707,-0.19071 0.0903,0.009 0.1677,0.10616 0.79052,0.99019 l 0.69046,0.97999 0.0885,-0.0617 c 0.0487,-0.0339 0.57484,-0.40055 1.16925,-0.81468 0.59439,-0.41414 1.08831,-0.76532 1.0976,-0.7804 0.009,-0.0151 -0.28358,-0.45497 -0.6508,-0.97754 -0.74541,-1.06079 -0.76546,-1.10442 -0.56695,-1.23508 l 0.11758,-0.0774 0.0541,0.0714 c 0.0297,0.0393 0.0758,0.0637 0.10231,0.0543 0.0336,-0.0119 0.24749,0.2667 0.7084,0.92308 0.36311,0.51709 0.66698,0.94016 0.67532,0.94014 0.0309,-6e-5 2.28465,-1.5762 2.28555,-1.59837 0,-0.0127 -0.29964,-0.45011 -0.66702,-0.97207 -0.36737,-0.52196 -0.6682,-0.96494 -0.66855,-0.98441 -0.003,-0.13368 0.0217,-0.18831 0.10978,-0.25139 0.0737,-0.0527 0.11157,-0.0623 0.14293,-0.0364 0.0251,0.0207 0.0553,0.0231 0.0733,0.006 0.0185,-0.0178 0.30684,0.36433 0.72448,0.95986 0.38166,0.54417 0.71004,0.98319 0.72972,0.97558 0.0196,-0.008 0.45189,-0.30385 0.96039,-0.65833 0.5085,-0.35449 0.94313,-0.6557 0.96586,-0.66937 0.0318,-0.0191 0.0414,0.0425 0.0418,0.26772 v 0.29257 l -8.80282,6.13405 c -5.75612,4.01106 -8.83407,6.13668 -8.89317,6.14164 -0.0497,0.004 -0.14687,0.0124 -0.2159,0.0182 -0.069,0.006 -0.13224,0.004 -0.14044,-0.004 z m -14.23426,-4.25376 c 0.46589,-0.32491 0.8552,-0.60398 0.86515,-0.62015 0.01,-0.0162 -0.27905,-0.45 -0.64222,-0.96407 -0.45753,-0.64764 -0.65069,-0.9467 -0.62898,-0.97386 0.0205,-0.0257 0.0136,-0.0661 -0.02,-0.11722 -0.0492,-0.0748 -0.0469,-0.0807 0.0554,-0.14223 0.23174,-0.13938 0.21086,-0.15913 0.96935,0.91679 0.38098,0.54043 0.69782,0.98259 0.70407,0.98257 0.0378,-7e-5 2.35309,-1.63665 2.35304,-1.66326 -3e-5,-0.0179 -0.30468,-0.46632 -0.67699,-0.99638 -0.74103,-1.055 -0.74513,-1.06421 -0.53541,-1.20226 0.10876,-0.0716 0.11047,-0.0717 0.16833,-0.008 0.0322,0.0354 0.0778,0.0605 0.10147,0.0558 0.0237,-0.005 0.33467,0.40644 0.69293,0.91622 0.35746,0.50865 0.66345,0.92959 0.67999,0.93543 0.0383,0.0135 2.24745,-1.52229 2.26883,-1.57727 0.009,-0.0225 -0.28996,-0.47587 -0.66381,-1.00746 -0.45073,-0.64092 -0.66958,-0.97906 -0.64964,-1.00373 0.0165,-0.0205 0.0224,-0.0577 0.0131,-0.0827 -0.021,-0.0563 0.20094,-0.20926 0.23171,-0.15969 0.0115,0.0185 0.0457,0.0262 0.076,0.0172 0.0417,-0.0125 0.21967,0.21893 0.73491,0.95586 0.37392,0.53481 0.69285,0.97258 0.70874,0.97283 0.0208,2.6e-4 2.20672,-1.50181 2.2944,-1.57668 0.006,-0.005 -0.28839,-0.43364 -0.65453,-0.95199 -0.40425,-0.57234 -0.65841,-0.96151 -0.64717,-0.99096 0.0101,-0.0267 0.003,-0.0786 -0.0175,-0.11534 -0.0307,-0.057 -0.0201,-0.0789 0.0716,-0.14879 0.19947,-0.15204 0.20741,-0.14435 0.95298,0.92204 0.45622,0.65252 0.69598,0.96825 0.72927,0.96031 0.0501,-0.012 2.22395,-1.51609 2.30767,-1.5967 0.0378,-0.0364 -0.0657,-0.20117 -0.63889,-1.01712 -0.49049,-0.69814 -0.68167,-0.99582 -0.67561,-1.05199 0.005,-0.0435 0.0588,-0.11708 0.12189,-0.16557 l 0.11345,-0.0872 0.057,0.0702 c 0.0314,0.0386 0.08,0.0702 0.10811,0.0703 0.0292,8e-5 0.33025,0.39597 0.70331,0.92493 0.35875,0.50864 0.65651,0.92956 0.66173,0.93538 0.0116,0.0131 2.155,-1.47393 2.24178,-1.55529 0.0609,-0.0571 0.0438,-0.0854 -0.62579,-1.03847 -0.49591,-0.70587 -0.67831,-0.98988 -0.65246,-1.01585 0.0209,-0.0209 0.0238,-0.0509 0.007,-0.0715 -0.0183,-0.0226 0.0177,-0.0684 0.0998,-0.12634 0.0707,-0.05 0.12856,-0.0752 0.12859,-0.056 5e-5,0.0191 0.0293,0.0301 0.065,0.0244 0.0518,-0.008 0.20394,0.18733 0.7497,0.96387 0.37663,0.53589 0.6894,0.97939 0.69506,0.98555 0.01,0.0109 2.29039,-1.56868 2.3041,-1.5959 0.004,-0.007 -0.28422,-0.42803 -0.6399,-0.93467 -0.43701,-0.62253 -0.64709,-0.94962 -0.64799,-1.00893 0,-0.0483 -0.0188,-0.10885 -0.0404,-0.13461 -0.0315,-0.0378 -0.0185,-0.0592 0.0671,-0.1113 0.23961,-0.14558 0.2213,-0.16249 0.9562,0.88353 0.3673,0.52282 0.68432,0.9641 0.70448,0.98062 0.0241,0.0198 0.42601,-0.24121 1.1756,-0.76342 0.62643,-0.43641 1.15686,-0.81183 1.17877,-0.83427 0.0313,-0.032 -0.10954,-0.2529 -0.65595,-1.02865 -0.44601,-0.63325 -0.68438,-0.9993 -0.664,-1.01976 0.0175,-0.0175 0.0257,-0.0487 0.018,-0.0692 -0.008,-0.0205 0.0396,-0.072 0.10496,-0.11445 l 0.11882,-0.0772 0.0488,0.0695 c 0.0269,0.0382 0.0721,0.0653 0.10056,0.0602 0.0347,-0.006 0.25845,0.28459 0.67908,0.88253 0.34505,0.49047 0.64765,0.9123 0.67244,0.93739 0.0382,0.0387 0.21746,-0.0743 1.17904,-0.7429 0.6237,-0.43369 1.13951,-0.79317 1.14628,-0.79884 0.007,-0.006 -0.29406,-0.44641 -0.66852,-0.9794 -0.75131,-1.06941 -0.76002,-1.08868 -0.56081,-1.24133 0.073,-0.056 0.11758,-0.072 0.13266,-0.0477 0.0124,0.0201 0.0477,0.0339 0.0783,0.0306 0.0381,-0.004 0.26744,0.29492 0.72998,0.95183 0.37092,0.52681 0.69319,0.95779 0.71607,0.95775 0.0673,-1.3e-4 2.28558,-1.55544 2.27187,-1.59284 -0.007,-0.0187 -0.30033,-0.44232 -0.65214,-0.94133 -0.44336,-0.62883 -0.63797,-0.93162 -0.63408,-0.98656 0.003,-0.0436 -0.01,-0.0975 -0.0281,-0.11967 -0.0436,-0.0524 0.17881,-0.23099 0.24006,-0.19279 0.0228,0.0141 0.06,0.026 0.083,0.0265 0.023,5.3e-4 0.34507,0.43182 0.71581,0.95863 0.3707,0.5268 0.69307,0.95779 0.71635,0.95775 0.0233,-5e-5 0.4195,-0.26125 0.88049,-0.58046 0.6364,-0.44071 0.83491,-0.59429 0.82481,-0.63819 -0.007,-0.0318 -0.003,-0.0646 0.0111,-0.0729 0.0135,-0.008 0.0225,-0.0644 0.0204,-0.12464 -0.003,-0.0867 -0.18237,-0.36379 -0.86156,-1.33104 -0.47173,-0.67183 -0.86167,-1.22634 -0.86654,-1.23225 -0.0101,-0.0123 -28.84634,20.07627 -28.90334,20.13537 -0.0284,0.0294 0.17607,0.34219 0.83429,1.27649 0.88223,1.25228 0.94489,1.32498 1.09281,1.26789 0.0239,-0.009 0.0534,-7.9e-4 0.0656,0.0189 0.0276,0.0445 -0.049,0.0931 0.95295,-0.60564 z m -4.00146,-1.8834 c 0.0937,0.0204 30.35596,-21.06986 30.35615,-21.1557 -8e-5,-0.0321 0.0279,-0.0787 0.0618,-0.10364 0.035,-0.0257 0.0533,-0.067 0.0424,-0.0954 -0.0106,-0.0276 -0.004,-0.0594 0.014,-0.0708 0.0212,-0.0132 0.0153,-0.0482 -0.0161,-0.096 -0.0273,-0.0414 -0.0424,-0.10327 -0.0336,-0.13743 0.01,-0.0371 -0.0259,-0.11866 -0.0879,-0.20248 -0.11076,-0.14966 -0.12171,-0.15581 -0.19498,-0.10926 -0.0357,0.0227 -0.0816,-0.0191 -0.18822,-0.17179 -0.12806,-0.18328 -0.13592,-0.20559 -0.0855,-0.24306 0.0501,-0.0372 0.0507,-0.0493 0.006,-0.12404 -0.0273,-0.0455 -1.37795,-1.97126 -3.00127,-4.2794 -1.90923,-2.71469 -2.96876,-4.19356 -3.00038,-4.18794 -0.0269,0.005 -0.0865,-0.0332 -0.13245,-0.0843 -0.0577,-0.0642 -0.11938,-0.0949 -0.19933,-0.0992 -0.1043,-0.006 -1.59838,1.02704 -15.07794,10.42085 -8.2292,5.73487 -15.10523,10.52845 -15.28007,10.6524 -0.36012,0.25528 -0.40119,0.32976 -0.28821,0.5227 0.0462,0.0788 0.0547,0.11942 0.0286,0.13562 -0.0236,0.0147 1.12011,1.66887 3.11931,4.51165 1.73612,2.46868 3.21588,4.56763 3.28835,4.66432 0.0786,0.10483 0.1496,0.16893 0.17594,0.15876 0.0243,-0.009 0.0677,0.0187 0.0965,0.0625 0.0296,0.045 0.0724,0.0718 0.0985,0.0617 0.0254,-0.01 0.0561,-0.002 0.0683,0.0178 0.0151,0.0244 0.0442,0.0201 0.0921,-0.0136 0.0385,-0.0271 0.10072,-0.0425 0.13832,-0.0343 z m 18.32052,-2.14823 c 1.32448,-0.92331 1.9817,-1.40043 1.98162,-1.43862 -5e-5,-0.0314 0.0132,-0.0668 0.0295,-0.0786 0.0167,-0.0121 0.0172,-0.0483 0.003,-0.0827 -0.0153,-0.0336 -0.0298,-0.0984 -0.032,-0.14384 -0.003,-0.0511 -0.42553,-0.68137 -1.1086,-1.65154 -0.60754,-0.86287 -1.13081,-1.59634 -1.16285,-1.62994 -0.0497,-0.0522 -0.0695,-0.055 -0.13562,-0.0195 -0.17307,0.093 -2.83724,1.96664 -2.83718,1.99526 2e-5,0.017 0.0597,0.11382 0.1325,0.21514 0.0906,0.12604 0.1224,0.19639 0.1006,0.22276 -0.0212,0.0255 -0.0154,0.0622 0.0172,0.10844 0.0327,0.0465 0.0375,0.0771 0.0146,0.0914 -0.019,0.0119 -0.0262,0.0483 -0.0159,0.081 0.0355,0.11101 -0.26067,0.1665 -0.31813,0.0596 -0.0172,-0.0318 -0.0594,-0.0578 -0.094,-0.0577 -0.0393,7e-5 -0.11501,-0.0739 -0.20193,-0.19731 -0.0883,-0.12542 -0.15335,-0.18862 -0.1783,-0.17329 -0.16751,0.10297 -0.87331,0.60976 -0.9085,0.65232 -0.0326,0.0394 -0.0353,0.0731 -0.0103,0.12776 0.0188,0.0408 0.53658,0.78727 1.15086,1.65874 0.76496,1.08525 1.13302,1.58115 1.16819,1.57386 0.0282,-0.006 0.0725,0.0195 0.0984,0.0563 0.0259,0.0368 0.0675,0.0591 0.0924,0.0495 0.0249,-0.01 0.0557,-7.9e-4 0.0684,0.0196 0.0282,0.0455 -0.22913,0.21798 2.14728,-1.43863 z m 6.57733,-4.58341 c 0.8513,-0.59273 1.55239,-1.0908 1.55797,-1.10681 0.006,-0.016 -0.38499,-0.59123 -0.86796,-1.27824 -0.52428,-0.74581 -0.86696,-1.26258 -0.85045,-1.28254 0.0153,-0.0185 0.009,-0.0681 -0.0143,-0.1113 -0.0365,-0.0678 -0.0327,-0.0871 0.0288,-0.14878 0.0389,-0.039 0.10916,-0.0885 0.15621,-0.10998 0.085,-0.0388 0.0909,-0.0315 1.00621,1.27139 0.50638,0.72076 0.93313,1.32431 0.94832,1.34123 0.0164,0.0182 0.13639,-0.0428 0.29398,-0.14939 0.19645,-0.13288 0.26238,-0.19532 0.25127,-0.23797 -0.008,-0.0318 0,-0.0667 0.0167,-0.0775 0.0188,-0.0117 0.0116,-0.0501 -0.0177,-0.0948 -0.0355,-0.0539 -0.0393,-0.0852 -0.0138,-0.11093 0.0257,-0.0258 -0.29136,-0.50056 -1.1218,-1.68037 -0.63667,-0.90447 -1.17978,-1.6484 -1.20693,-1.65318 -0.0743,-0.0131 -4.41007,3.02278 -4.40507,3.08434 0.007,0.0868 2.30513,3.32353 2.34799,3.307 0.0217,-0.008 0.0638,0.0112 0.0934,0.0436 0.13456,0.14772 0.1633,0.13163 1.79697,-1.00583 z m 7.13139,-4.97044 c 2.45605,-1.70935 2.4755,-1.72336 2.47584,-1.7821 2.7e-4,-0.03 0.0114,-0.0655 0.0249,-0.079 0.0135,-0.0135 0,-0.061 -0.0289,-0.10566 -0.0415,-0.0631 -0.0442,-0.0868 -0.0122,-0.10669 0.029,-0.018 -0.30639,-0.52009 -1.12784,-1.68868 -0.64296,-0.91471 -1.18888,-1.68397 -1.21311,-1.70946 -0.0378,-0.0397 -0.0564,-0.0383 -0.12975,0.01 -0.0471,0.031 -0.0814,0.0798 -0.0762,0.10844 0.006,0.0356 -0.40339,0.33989 -1.29517,0.96161 -1.60657,1.12003 -1.56432,1.08706 -1.51442,1.1815 0.0212,0.0399 0.34076,0.50363 0.71036,1.03044 0.56636,0.80725 0.66931,0.9719 0.65497,1.04735 -0.0183,0.0956 -0.15819,0.21286 -0.191,0.16 -0.0106,-0.0172 -0.0412,-0.0228 -0.0679,-0.0125 -0.0267,0.0103 -0.0485,0.001 -0.0486,-0.0201 -5e-5,-0.0224 -0.0254,-0.0308 -0.0597,-0.0198 -0.0481,0.0154 -0.19365,-0.17205 -0.75427,-0.97148 -0.38206,-0.5448 -0.70954,-0.98988 -0.72771,-0.98907 -0.0486,0.002 -0.88443,0.60472 -0.89853,0.64776 -0.0198,0.0605 2.27645,3.29943 2.3391,3.29931 0.0304,-6e-5 0.0795,0.0296 0.1092,0.0659 0.12641,0.15472 0.15528,0.13852 1.83102,-1.02776 z"
       id="path56790" />
    <path
       style="fill:#626060;fill-opacity:1;stroke:none;stroke-width:0.0875001;stroke-miterlimit:4;stroke-dasharray:0.175, 0.0875001;stroke-dashoffset:0;stroke-opacity:1"
       d="m 241.89237,244.41269 c -0.0119,-0.0192 -0.042,-0.0271 -0.0668,-0.0175 -0.0248,0.01 -0.0536,0.004 -0.0639,-0.0127 -0.0103,-0.0166 -0.039,-0.0223 -0.0639,-0.0127 -0.0248,0.01 -0.0546,0.002 -0.0662,-0.0164 -0.0116,-0.0186 -0.0447,-0.0247 -0.0736,-0.0135 -0.0311,0.012 -0.0652,-0.002 -0.0833,-0.0344 -0.0169,-0.0301 -0.0587,-0.0546 -0.0928,-0.0545 -0.0342,7e-5 -0.0924,-0.0383 -0.12945,-0.0852 -0.037,-0.0469 -0.094,-0.0888 -0.1266,-0.093 -0.0875,-0.0114 -3.66346,-5.10093 -3.63886,-5.17896 0.0108,-0.0341 -0.0125,-0.10313 -0.0545,-0.16196 -0.0446,-0.0623 -0.0602,-0.11088 -0.04,-0.12392 0.0355,-0.0229 0.0319,-0.18424 -0.006,-0.27435 -0.0127,-0.03 -0.006,-0.0648 0.0139,-0.0774 0.0271,-0.0168 0.0271,-0.0346 -1e-5,-0.0672 -0.0283,-0.034 -0.0206,-0.0531 0.0333,-0.082 0.0391,-0.021 0.0652,-0.0624 0.059,-0.0934 -0.006,-0.0306 0.0188,-0.0803 0.0554,-0.11052 0.0367,-0.0302 0.0667,-0.0778 0.0668,-0.10587 2e-4,-0.0765 3.94572,-2.81627 3.99593,-2.77476 0.0266,0.022 0.06,0.0174 0.10265,-0.0139 0.0425,-0.0312 0.0761,-0.0358 0.10253,-0.014 0.0266,0.022 0.0667,0.0145 0.12408,-0.0233 0.0559,-0.0368 0.0848,-0.0425 0.0849,-0.0167 4e-5,0.0229 0.0252,0.0311 0.0606,0.0198 0.0371,-0.0119 0.0831,0.005 0.11894,0.0449 0.0321,0.0353 0.0793,0.0562 0.10486,0.0463 0.0256,-0.01 0.0465,-5.3e-4 0.0465,0.0209 4e-5,0.0224 0.0254,0.0308 0.0598,0.0198 0.0414,-0.0132 0.0827,0.0118 0.13421,0.0812 0.041,0.0552 0.0952,0.0961 0.12053,0.0909 0.0672,-0.0137 3.73211,5.19697 3.69135,5.24831 -0.0203,0.0256 -0.0125,0.0675 0.0226,0.12091 0.0376,0.0571 0.0427,0.0886 0.0172,0.10447 -0.0257,0.016 -0.0214,0.0459 0.0146,0.10052 0.0341,0.0519 0.0396,0.085 0.0163,0.0995 -0.0192,0.0119 -0.0271,0.042 -0.0175,0.0668 0.01,0.0248 0.003,0.0544 -0.0155,0.0656 -0.0181,0.0112 -0.0238,0.0489 -0.0127,0.0838 0.0111,0.0348 0.005,0.0634 -0.014,0.0634 -0.0188,3e-5 -0.0253,0.0233 -0.0143,0.0517 0.0121,0.0314 -0.007,0.0708 -0.0491,0.10022 -0.038,0.0267 -0.0609,0.0695 -0.0511,0.095 0.0111,0.0288 -0.0365,0.0861 -0.12512,0.15067 -0.0828,0.0603 -0.14015,0.12747 -0.13614,0.15952 0.01,0.078 -3.3966,2.44262 -3.52142,2.44454 -0.0488,7.9e-4 -0.13684,0.0358 -0.1957,0.0779 -0.0609,0.0435 -0.12994,0.0678 -0.16016,0.0562 -0.0292,-0.0111 -0.0874,0.002 -0.12934,0.0299 -0.051,0.0335 -0.0834,0.0386 -0.0979,0.0152 z m 2.05868,-1.85583 c 1.29956,-0.90468 2.01848,-1.42473 2.01366,-1.45661 -0.004,-0.0273 0.005,-0.0689 0.0192,-0.0924 0.0147,-0.0236 0.0111,-0.0616 -0.008,-0.0846 -0.0192,-0.023 -0.0317,-0.0781 -0.0279,-0.12252 0.009,-0.10725 -3.64933,-5.32129 -3.72374,-5.30696 -0.0273,0.005 -0.073,-0.0188 -0.10154,-0.0534 -0.0439,-0.0532 -0.0634,-0.0568 -0.12618,-0.0231 -0.0489,0.0263 -0.0876,0.0289 -0.11353,0.008 -0.0472,-0.0387 -2.73604,1.81406 -2.71631,1.87167 0.007,0.02 0.41811,0.61234 0.91395,1.31637 0.61857,0.8783 0.89086,1.29078 0.86753,1.3142 -0.0233,0.0234 -0.0185,0.0577 0.0154,0.1092 0.0314,0.0477 0.0372,0.0826 0.016,0.0958 -0.0184,0.0114 -0.026,0.0398 -0.017,0.0631 0.009,0.0233 -0.0136,0.0696 -0.0502,0.10282 -0.0525,0.0477 -0.0766,0.0522 -0.11394,0.0213 -0.033,-0.0273 -0.054,-0.0284 -0.0692,-0.004 -0.0136,0.022 -0.0448,0.007 -0.0826,-0.0393 -0.0334,-0.0411 -0.0838,-0.0748 -0.11185,-0.0749 -0.0296,-8e-5 -0.42176,-0.52789 -0.93264,-1.25523 -0.48486,-0.6903 -0.90136,-1.26856 -0.92556,-1.28502 -0.0309,-0.021 -0.15234,0.0455 -0.40757,0.22306 -0.30199,0.21013 -0.36705,0.27054 -0.3841,0.3566 -0.0113,0.057 -0.0123,0.11696 -0.002,0.13326 0.0101,0.0163 0.006,0.0297 -0.0101,0.0297 -0.0157,3e-5 -0.0298,0.0515 -0.0315,0.11434 -0.003,0.0996 0.23139,0.44745 1.82799,2.71676 1.36519,1.94039 1.84943,2.60514 1.90344,2.61292 0.0398,0.006 0.0862,0.036 0.10296,0.0672 0.0204,0.0379 0.0677,0.0555 0.14243,0.0529 0.0907,-0.003 0.49411,-0.27 2.13306,-1.41094 z"
       id="path56829" />
    <path
       style="fill:#626060;fill-opacity:1;stroke:none;stroke-width:0.0875001;stroke-miterlimit:4;stroke-dasharray:0.175, 0.0875001;stroke-dashoffset:0;stroke-opacity:1"
       d="m 248.99363,239.47127 c -0.0119,-0.0192 -0.042,-0.0271 -0.0668,-0.0175 -0.0249,0.01 -0.0544,0.003 -0.0656,-0.0155 -0.0112,-0.0181 -0.0489,-0.0238 -0.0838,-0.0127 -0.0348,0.0111 -0.0634,0.006 -0.0634,-0.012 -3e-5,-0.0177 -0.0285,-0.0247 -0.0633,-0.0155 -0.0414,0.0109 -0.0759,-0.007 -0.0998,-0.0513 -0.0201,-0.0374 -0.0555,-0.0607 -0.0786,-0.0517 -0.0232,0.009 -0.0842,-0.0276 -0.13574,-0.0812 -0.0515,-0.0536 -0.11055,-0.0917 -0.13119,-0.0847 -0.052,0.0176 -3.67343,-5.14673 -3.62859,-5.17456 0.0234,-0.0145 0.013,-0.0593 -0.0308,-0.13267 -0.0625,-0.10466 -0.08,-0.2669 -0.0338,-0.31333 0.0116,-0.0116 0.007,-0.0465 -0.009,-0.0776 -0.0448,-0.0834 -0.0192,-0.23653 0.0478,-0.28571 0.0322,-0.0237 0.0507,-0.0634 0.0411,-0.0883 -0.01,-0.0249 0.0108,-0.063 0.0453,-0.0846 0.0345,-0.0216 0.0627,-0.0671 0.0626,-0.10098 -1.6e-4,-0.0842 3.95986,-2.84877 3.99636,-2.78997 0.019,0.0306 0.045,0.0271 0.10865,-0.0148 0.0583,-0.0383 0.0906,-0.0439 0.10641,-0.0184 0.0158,0.0255 0.0481,0.0199 0.1064,-0.0184 0.0599,-0.0394 0.0903,-0.0444 0.10704,-0.0174 0.0129,0.0207 0.0481,0.0281 0.0783,0.0165 0.0344,-0.0133 0.0626,-0.001 0.0754,0.0318 0.0112,0.0291 0.0561,0.0529 0.0996,0.0528 0.0435,-9e-5 0.0792,0.0157 0.0792,0.0352 4e-5,0.0194 0.0261,0.027 0.0579,0.0168 0.0396,-0.0126 0.0788,0.0128 0.12418,0.0806 0.0371,0.0555 0.0906,0.0952 0.12133,0.0903 0.0767,-0.0123 3.75017,5.20458 3.70017,5.25478 -0.0243,0.0245 -0.0222,0.05 0.007,0.0855 0.023,0.0278 0.0327,0.0751 0.0212,0.10524 -0.0114,0.0301 0.003,0.0898 0.0304,0.13266 0.0332,0.0505 0.038,0.0779 0.0135,0.078 -0.0214,4e-5 -0.0302,0.0286 -0.0204,0.0662 0.01,0.0363 0.003,0.0751 -0.0148,0.0861 -0.0177,0.011 -0.0243,0.0403 -0.0148,0.0651 0.01,0.0248 0.004,0.0536 -0.0127,0.0639 -0.0167,0.0103 -0.0214,0.0415 -0.0106,0.0693 0.0116,0.0301 -0.008,0.0703 -0.0495,0.0992 -0.038,0.0267 -0.0611,0.069 -0.0515,0.094 0.0109,0.0279 -0.0394,0.0848 -0.12986,0.14733 -0.0822,0.0567 -0.14528,0.12585 -0.14258,0.15605 0.007,0.0796 -3.43507,2.4757 -3.51862,2.44936 -0.0394,-0.0124 -0.1113,0.0172 -0.1995,0.0824 -0.0957,0.0707 -0.1452,0.09 -0.16182,0.0632 -0.0175,-0.0283 -0.0463,-0.0238 -0.10763,0.0165 -0.0554,0.0364 -0.091,0.0433 -0.10534,0.0201 z m 1.57354,-1.52681 1.57972,-1.0995 -0.11037,-0.15181 c -0.71818,-0.98774 -1.67641,-2.39524 -1.64426,-2.41519 0.0285,-0.0177 0.0247,-0.0453 -0.0145,-0.10485 -0.0503,-0.0765 -0.0491,-0.0843 0.0235,-0.14477 0.15473,-0.12898 0.22469,-0.15701 0.27094,-0.10854 0.0232,0.0243 0.43336,0.60152 0.91152,1.28274 0.47816,0.68122 0.89407,1.26444 0.92423,1.29604 0.0518,0.0543 0.0684,0.0478 0.30194,-0.11833 0.13589,-0.0967 0.24744,-0.19722 0.24786,-0.2234 0,-0.0262 0.0122,-0.0658 0.0259,-0.0881 0.014,-0.0223 0,-0.0779 -0.0297,-0.12397 -0.0381,-0.058 -0.0426,-0.0835 -0.0146,-0.0836 0.0233,-4e-5 0.0319,-0.0223 0.0201,-0.0525 -0.0249,-0.0642 -3.55263,-5.08682 -3.64612,-5.191 -0.0367,-0.0409 -0.0856,-0.0706 -0.10865,-0.0659 -0.0231,0.005 -0.0635,-0.0207 -0.0898,-0.0563 -0.0406,-0.0548 -0.0606,-0.059 -0.13013,-0.0271 -0.0494,0.0226 -0.0942,0.0256 -0.11236,0.008 -0.0436,-0.0435 -3.95402,2.68744 -3.96938,2.7721 -0.007,0.036 -0.0357,0.0923 -0.0647,0.12522 -0.0416,0.0471 -0.0448,0.0727 -0.015,0.12025 0.0208,0.0332 0.0305,0.0888 0.0215,0.12346 -0.0229,0.0882 3.62897,5.27886 3.71398,5.27904 0.0328,7e-5 0.0801,0.0279 0.105,0.0618 0.0257,0.035 0.067,0.0533 0.0954,0.0424 0.0275,-0.0106 0.0589,-0.005 0.0697,0.0123 0.0108,0.0174 0.0283,0.0316 0.039,0.0315 0.0106,-2e-5 0.73023,-0.49481 1.59908,-1.09953 z"
       id="path56868" />
    <path
       style="fill:#626060;fill-opacity:1;stroke:none;stroke-width:0.0875001;stroke-miterlimit:4;stroke-dasharray:0.175, 0.0875001;stroke-dashoffset:0;stroke-opacity:1"
       d="m 255.9589,234.49115 c -0.009,-0.015 -0.0454,-0.0181 -0.0802,-0.007 -0.037,0.0118 -0.0634,0.005 -0.0634,-0.0173 -5e-5,-0.0215 -0.0262,-0.0292 -0.0615,-0.0179 -0.0355,0.0113 -0.0791,-0.002 -0.10332,-0.0306 -0.023,-0.0276 -0.0662,-0.0502 -0.096,-0.0502 -0.0298,6e-5 -0.0731,-0.0302 -0.0963,-0.0672 -0.0233,-0.037 -0.0656,-0.063 -0.0942,-0.0577 -0.0688,0.0127 -3.73869,-5.19301 -3.69316,-5.23872 0.0198,-0.0199 0.009,-0.0689 -0.0292,-0.13308 -0.0585,-0.0983 -0.0727,-0.25949 -0.0269,-0.30551 0.0123,-0.0123 9e-5,-0.0563 -0.0271,-0.0977 -0.0332,-0.0504 -0.038,-0.0824 -0.0146,-0.0969 0.0192,-0.0119 0.0274,-0.0411 0.0183,-0.0648 -0.009,-0.0237 0.0126,-0.0697 0.0483,-0.10214 0.0357,-0.0325 0.0575,-0.0783 0.0484,-0.10192 -0.009,-0.0236 0.0135,-0.0591 0.0503,-0.0788 0.0368,-0.0198 0.0618,-0.061 0.0557,-0.0916 -0.0126,-0.0628 -0.11338,0.0103 2.31646,-1.68057 1.03233,-0.71837 1.67087,-1.143 1.67963,-1.11694 0.0109,0.0323 0.0329,0.0297 0.0956,-0.0116 0.0577,-0.038 0.0936,-0.0436 0.12293,-0.0193 0.0293,0.0242 0.062,0.0198 0.11136,-0.0149 0.0465,-0.0327 0.0771,-0.0375 0.0914,-0.0144 0.0119,0.0191 0.0483,0.0262 0.081,0.0157 0.0363,-0.0116 0.067,8e-4 0.0789,0.0316 0.0109,0.0278 0.0489,0.0505 0.0847,0.0504 0.0359,-7e-5 0.0736,0.0133 0.0838,0.0298 0.0103,0.0165 0.0446,0.0233 0.0764,0.0152 0.0376,-0.01 0.0811,0.0203 0.12414,0.0852 0.0393,0.0591 0.0866,0.0936 0.11592,0.0846 0.0679,-0.021 3.69358,5.12977 3.64892,5.18375 -0.0201,0.0243 -0.008,0.0716 0.0334,0.13497 0.0354,0.0537 0.0559,0.12434 0.0456,0.15706 -0.0103,0.0327 0,0.0811 0.0212,0.10745 0.0306,0.0367 0.0309,0.0589 0,0.0947 -0.0277,0.0335 -0.0284,0.0531 -0.003,0.0691 0.0262,0.0161 0.0259,0.035 0,0.0676 -0.0206,0.0249 -0.0284,0.0598 -0.0175,0.0775 0.0111,0.0177 0.004,0.0422 -0.0159,0.0544 -0.0196,0.0122 -0.0283,0.0416 -0.019,0.0654 0.009,0.0237 -0.0111,0.0683 -0.045,0.0991 -0.0339,0.0308 -0.0547,0.0737 -0.0463,0.0954 0.008,0.0217 -0.0534,0.0881 -0.13724,0.14741 -0.0929,0.0657 -0.14565,0.12557 -0.13502,0.15311 0.0249,0.0648 -3.39987,2.45352 -3.51097,2.44882 -0.0447,-0.002 -0.14382,0.0398 -0.22039,0.0927 -0.0888,0.0614 -0.14388,0.0821 -0.15219,0.0574 -0.009,-0.0257 -0.0345,-0.029 -0.0771,-0.01 -0.0834,0.0379 -0.24625,0.0428 -0.26784,0.008 z m 2.16808,-1.81171 c 1.1172,-0.78064 2.03163,-1.44011 2.03208,-1.46548 0,-0.0254 0.0124,-0.0647 0.0265,-0.0875 0.0145,-0.0232 0.004,-0.0729 -0.0249,-0.11345 -0.0332,-0.0472 -0.0398,-0.0853 -0.0193,-0.11017 0.0217,-0.0262 -0.52348,-0.82663 -1.74474,-2.56209 -2.04703,-2.90886 -1.92998,-2.74841 -1.98872,-2.72574 -0.0249,0.01 -0.0546,0.002 -0.0661,-0.0164 -0.0117,-0.0186 -0.0413,-0.026 -0.0662,-0.0164 -0.0249,0.01 -0.0544,0.003 -0.0656,-0.0155 -0.0114,-0.0181 -0.0489,-0.0238 -0.0838,-0.0127 -0.038,0.0121 -0.0633,0.005 -0.0634,-0.0189 -6e-5,-0.0255 -0.0317,-0.0188 -0.0909,0.0192 -0.23063,0.14806 -2.67385,1.85442 -2.72587,1.90376 -0.0558,0.053 0.0151,0.16096 1.43214,2.17742 1.13205,1.61102 1.48881,2.14158 1.48225,2.20433 -0.0132,0.127 -0.11679,0.1834 -0.263,0.14333 -0.0665,-0.0182 -0.13186,-0.0266 -0.14525,-0.0186 -0.0135,0.008 -0.6631,-0.89417 -1.44381,-2.00475 -0.7807,-1.11059 -1.44653,-2.05492 -1.47963,-2.09852 l -0.0602,-0.0793 -0.35245,0.24309 c -0.24252,0.16726 -0.34669,0.25801 -0.33398,0.29093 0.0102,0.0263 -0.006,0.066 -0.0365,0.0882 -0.0419,0.0308 -0.0486,0.0632 -0.0281,0.13641 0.0148,0.0528 0.0239,0.12031 0.0203,0.14996 -0.005,0.0438 3.46256,5.02319 3.63811,5.22374 0.0284,0.0324 0.0709,0.0515 0.0945,0.0424 0.0236,-0.009 0.0593,0.014 0.0794,0.0514 0.0238,0.0445 0.0584,0.0622 0.0998,0.0513 0.0348,-0.009 0.0716,-0.003 0.0818,0.0132 0.0103,0.0165 0.0289,0.0291 0.0414,0.028 0.0127,-10e-4 0.93692,-0.64062 2.05412,-1.42126 z"
       id="path56907" />
    <path
       style="fill:#626060;fill-opacity:1;stroke:none;stroke-width:0.0875001;stroke-miterlimit:4;stroke-dasharray:0.175, 0.0875001;stroke-dashoffset:0;stroke-opacity:1"
       d="m 263.10397,229.55743 c -0.0516,-0.0154 -0.11334,-0.0204 -0.13724,-0.0112 -0.0238,0.009 -0.0529,0.002 -0.0644,-0.0171 -0.0116,-0.0186 -0.0405,-0.0263 -0.0642,-0.0172 -0.0238,0.009 -0.0623,-0.006 -0.0857,-0.0344 -0.0233,-0.0281 -0.0669,-0.051 -0.0967,-0.0509 -0.0298,6e-5 -0.0731,-0.0302 -0.0963,-0.0672 -0.0233,-0.037 -0.0662,-0.063 -0.0956,-0.0577 -0.0739,0.0133 -3.73732,-5.18699 -3.69231,-5.24141 0.0209,-0.0254 0.005,-0.0777 -0.0498,-0.15723 -0.0564,-0.0827 -0.0688,-0.12338 -0.0405,-0.13294 0.0318,-0.0107 0.0321,-0.0314 0.003,-0.0935 -0.0414,-0.0841 -0.0411,-0.18599 0,-0.25404 0.0138,-0.0224 0.0151,-0.0569 0.003,-0.0765 -0.0122,-0.0196 0.0101,-0.0584 0.0497,-0.0862 0.0395,-0.0278 0.064,-0.0709 0.0544,-0.0958 -0.01,-0.0249 0.0127,-0.0664 0.0495,-0.0923 0.0368,-0.0259 0.0621,-0.0697 0.0563,-0.0973 -0.0151,-0.071 3.93173,-2.82051 3.98518,-2.77631 0.0254,0.021 0.062,0.0152 0.10784,-0.017 0.0382,-0.0268 0.0918,-0.0403 0.11912,-0.0298 0.0274,0.0105 0.0797,0.003 0.11641,-0.0168 0.0417,-0.0224 0.074,-0.024 0.0863,-0.004 0.0109,0.0174 0.0433,0.0225 0.0723,0.0114 0.0311,-0.012 0.0652,0.002 0.0833,0.0344 0.0169,0.0301 0.0589,0.0546 0.0933,0.0545 0.0344,-7e-5 0.0709,0.0134 0.0811,0.0298 0.0103,0.0165 0.0446,0.0231 0.0765,0.0147 0.0389,-0.0102 0.0778,0.0183 0.11856,0.0869 0.0403,0.0679 0.0792,0.0966 0.11581,0.0857 0.0728,-0.0218 3.6349,5.03346 3.64024,5.16622 0.003,0.0475 0.0284,0.12423 0.059,0.17061 0.0305,0.0464 0.0461,0.10895 0.0346,0.13906 -0.0114,0.0301 -0.003,0.0768 0.0201,0.10384 0.0299,0.036 0.0312,0.0609 0.005,0.093 -0.0265,0.032 -0.0257,0.0543 0.003,0.0827 0.0299,0.0298 0.0288,0.0388 -0.005,0.0389 -0.0272,5e-5 -0.037,0.0248 -0.0262,0.0662 0.01,0.0363 0.003,0.0751 -0.0148,0.0861 -0.0177,0.011 -0.0243,0.0404 -0.0146,0.0653 0.01,0.0249 -0.0135,0.0672 -0.0515,0.0939 -0.038,0.0267 -0.0611,0.069 -0.0515,0.0941 0.0109,0.0281 -0.0381,0.0829 -0.12742,0.14292 -0.0892,0.0599 -0.1419,0.11892 -0.13687,0.15338 0.0114,0.0784 -3.4403,2.48389 -3.5306,2.46045 -0.0379,-0.01 -0.11737,0.0231 -0.19878,0.0823 -0.0916,0.0666 -0.14663,0.0878 -0.16925,0.0653 -0.0228,-0.0225 -0.0555,-0.0216 -0.10099,0.003 -0.0371,0.02 -0.0722,0.035 -0.0779,0.0334 -0.006,-0.002 -0.0527,-0.0154 -0.10425,-0.0308 z m 2.1454,-1.84386 c 1.68455,-1.17403 2.02491,-1.424 2.00856,-1.47515 -0.0111,-0.0344 -0.004,-0.0616 0.0164,-0.0617 0.0233,-5e-5 0.0185,-0.0338 -0.0127,-0.0943 -0.03,-0.0577 -0.0371,-0.10608 -0.0183,-0.12486 0.0395,-0.0397 -3.64696,-5.28017 -3.71517,-5.28124 -0.0273,-5.3e-4 -0.0682,-0.0124 -0.091,-0.0266 -0.0228,-0.0142 -0.0552,-0.0172 -0.0722,-0.007 -0.0169,0.0105 -0.0407,0.003 -0.053,-0.0167 -0.0122,-0.0197 -0.0456,-0.0268 -0.0741,-0.0158 -0.0285,0.011 -0.0628,0.002 -0.0762,-0.0191 -0.0164,-0.0266 -0.18196,0.0707 -0.5147,0.30247 -0.26971,0.18789 -0.50159,0.35139 -0.5153,0.36333 -0.0138,0.0119 0.47546,0.73319 1.08707,1.60277 0.70059,0.99616 1.10037,1.59268 1.08066,1.61247 -0.0172,0.0173 -0.0241,0.0504 -0.0151,0.0735 0.0212,0.0546 -0.12367,0.1583 -0.16436,0.11774 -0.0167,-0.0166 -0.0492,-0.0228 -0.0724,-0.0138 -0.0233,0.009 -0.0525,-2.7e-4 -0.0651,-0.0206 -0.0146,-0.0235 -0.0368,-0.0256 -0.0612,-0.006 -0.0271,0.022 -0.3566,-0.42144 -1.12752,-1.51751 -0.7457,-1.0602 -1.10207,-1.54076 -1.12998,-1.52379 -0.0225,0.0136 -0.59423,0.41074 -1.27067,0.88245 -0.78192,0.54528 -1.22385,0.87323 -1.21335,0.90044 0.009,0.0236 -0.0116,0.0684 -0.0462,0.0998 -0.044,0.04 -0.054,0.0732 -0.0337,0.11113 0.0159,0.0298 0.0272,0.0911 0.0249,0.13635 -0.006,0.12379 3.65304,5.32223 3.73342,5.30351 0.0344,-0.008 0.0729,0.0137 0.0939,0.0526 0.023,0.043 0.0578,0.0603 0.0989,0.0495 0.0348,-0.009 0.0633,-0.002 0.0633,0.0168 3e-5,0.0184 0.0241,0.0242 0.0535,0.0129 0.0294,-0.0113 0.96613,-0.65671 2.08167,-1.43417 z"
       id="path56946" />
    <path
       style="fill:#626060;fill-opacity:1;stroke:none;stroke-width:0.0875001;stroke-miterlimit:4;stroke-dasharray:0.175, 0.0875001;stroke-dashoffset:0;stroke-opacity:1"
       d="m 278.31445,232.76425 c -0.01,-0.0154 -0.0319,-0.0191 -0.0496,-0.008 -0.0177,0.011 -0.0526,0.003 -0.0775,-0.0175 -0.0334,-0.0276 -0.0513,-0.0277 -0.0681,-2.6e-4 -0.0151,0.0245 -0.0392,0.0139 -0.071,-0.0313 -0.0265,-0.0377 -0.0766,-0.0684 -0.11126,-0.0684 -0.0347,7e-5 -0.0795,-0.0303 -0.0995,-0.0675 -0.0222,-0.0414 -0.058,-0.0612 -0.0922,-0.051 -0.0431,0.0129 -0.47035,-0.57349 -1.87978,-2.58003 -1.16652,-1.66073 -1.82086,-2.62037 -1.81533,-2.66237 0.005,-0.0361 -0.0151,-0.10178 -0.0441,-0.1459 -0.029,-0.0441 -0.0439,-0.10345 -0.0331,-0.13185 0.0109,-0.0284 -0.003,-0.0867 -0.0316,-0.12956 -0.0332,-0.0505 -0.038,-0.0779 -0.0135,-0.078 0.0214,-4e-5 0.0302,-0.0286 0.0204,-0.0661 -0.01,-0.0363 -0.003,-0.0751 0.0148,-0.0861 0.0177,-0.011 0.0246,-0.0394 0.0156,-0.0631 -0.009,-0.0237 0.0111,-0.0683 0.0449,-0.0991 0.0339,-0.0308 0.0539,-0.0757 0.0446,-0.0999 -0.009,-0.0242 0.0146,-0.0609 0.0533,-0.0817 0.0435,-0.0234 0.0639,-0.059 0.0537,-0.0936 -0.0127,-0.0431 0.43651,-0.3711 1.97144,-1.43909 1.19192,-0.82931 2.00012,-1.37125 2.01816,-1.35327 0.018,0.018 0.0671,0.0108 0.12242,-0.018 0.0621,-0.0323 0.0994,-0.0366 0.11388,-0.0132 0.0143,0.023 0.0478,0.0174 0.0994,-0.0165 0.0519,-0.0342 0.085,-0.0396 0.0995,-0.0163 0.0119,0.0192 0.0411,0.0274 0.0648,0.0183 0.0238,-0.009 0.0683,0.0111 0.0991,0.0449 0.0308,0.0339 0.0753,0.0541 0.0991,0.0449 0.0238,-0.009 0.0526,-0.001 0.0641,0.0172 0.0116,0.0186 0.0411,0.0261 0.0658,0.0166 0.0251,-0.01 0.0756,0.0259 0.11552,0.0817 0.0389,0.0544 0.10086,0.10363 0.13766,0.10932 0.0866,0.0134 3.6839,5.11315 3.6431,5.16467 -0.0159,0.0201 0,0.0793 0.0366,0.13994 0.0353,0.0578 0.056,0.12648 0.046,0.15267 -0.01,0.0262 -0.003,0.0766 0.0164,0.11193 0.019,0.0354 0.0249,0.0741 0.013,0.086 -0.0119,0.0119 -0.0228,0.0697 -0.0241,0.12842 -0.003,0.0587 -0.0148,0.12633 -0.0298,0.15031 -0.0151,0.024 -0.0183,0.0526 -0.007,0.0637 0.0111,0.0111 -0.0103,0.0527 -0.0477,0.0926 -0.0373,0.0399 -0.0634,0.088 -0.058,0.10688 0.006,0.0189 -0.0545,0.0816 -0.13322,0.13925 -0.0843,0.0617 -0.13602,0.12308 -0.12591,0.14925 0.0246,0.064 -3.40127,2.45251 -3.51124,2.44801 -0.0447,-0.002 -0.14284,0.0393 -0.2182,0.0913 -0.1,0.0691 -0.14689,0.0848 -0.17362,0.0582 -0.0251,-0.025 -0.05,-0.0258 -0.0793,-0.003 -0.0513,0.0407 -0.25344,0.0437 -0.27799,0.004 z m 2.19964,-1.81498 c 1.37541,-0.96135 2.02829,-1.43634 2.02202,-1.47108 -0.005,-0.0282 0.006,-0.0608 0.0249,-0.0724 0.0228,-0.0141 0.0206,-0.045 -0.006,-0.0934 -0.0222,-0.0398 -0.0416,-0.10954 -0.0431,-0.15501 -0.004,-0.1159 -3.65532,-5.29528 -3.71652,-5.27165 -0.0246,0.01 -0.0541,0.003 -0.0654,-0.0156 -0.0111,-0.0181 -0.0489,-0.0238 -0.0838,-0.0127 -0.0348,0.0111 -0.0634,0.007 -0.0634,-0.01 -3e-5,-0.0164 -0.0484,-0.03 -0.10755,-0.0303 -0.082,-2.7e-4 -0.21392,0.0727 -0.55589,0.30768 -0.24662,0.1695 -0.4639,0.32773 -0.48284,0.35164 -0.0259,0.0328 0.23717,0.42942 1.06952,1.61213 0.74613,1.06017 1.09398,1.58079 1.07307,1.60607 -0.0169,0.0206 -0.023,0.0579 -0.0132,0.083 0.0244,0.0631 -0.10742,0.143 -0.16176,0.0981 -0.0287,-0.0237 -0.0531,-0.0222 -0.0801,0.005 -0.0298,0.0299 -0.0388,0.0292 -0.0389,-0.003 -5e-5,-0.023 -0.0292,-0.0371 -0.0647,-0.0313 -0.0518,0.008 -0.27987,-0.29523 -1.14596,-1.52536 -0.59473,-0.84471 -1.08638,-1.53582 -1.09255,-1.53581 -0.006,1e-5 -0.57793,0.39478 -1.27055,0.87726 -0.85818,0.59779 -1.25373,0.89183 -1.24169,0.92305 0.01,0.0252 -0.0151,0.0724 -0.055,0.10491 -0.0702,0.0571 -0.0707,0.0621 -0.0156,0.14596 0.0314,0.0478 0.0419,0.0869 0.0233,0.0869 -0.0185,3e-5 -0.0338,0.0153 -0.0338,0.0339 2e-5,0.0186 0.82891,1.21139 1.84195,2.65059 1.21822,1.7307 1.86102,2.61669 1.89841,2.61662 0.0311,-6e-5 0.0753,0.0249 0.0983,0.0554 0.0366,0.0487 0.1131,0.0782 0.22312,0.0862 0.0182,0.001 0.94715,-0.63649 2.06436,-1.41736 z"
       id="path56985" />
    <path
       style="fill:#626060;fill-opacity:1;stroke:none;stroke-width:0.0875001;stroke-miterlimit:4;stroke-dasharray:0.175, 0.0875001;stroke-dashoffset:0;stroke-opacity:1"
       d="m 277.25974,241.55956 c 0,-0.0944 -0.009,-0.22381 -0.0185,-0.28745 -0.0167,-0.10799 -0.008,-0.12238 0.13218,-0.21523 0.0825,-0.0547 0.15007,-0.11098 0.1501,-0.12501 0,-0.014 -0.29689,-0.44736 -0.65979,-0.96296 -0.42987,-0.61078 -0.64855,-0.94875 -0.62751,-0.96985 0.0212,-0.0211 0.0169,-0.0575 -0.0119,-0.10437 -0.0401,-0.0653 -0.0351,-0.0787 0.0542,-0.14457 0.21624,-0.15957 0.20677,-0.16852 0.96464,0.91054 0.399,0.56809 0.7075,0.977 0.73039,0.96817 0.0301,-0.0116 2.30587,-1.5873 2.35037,-1.62735 0.005,-0.005 -0.30205,-0.45118 -0.68257,-0.99241 -0.74417,-1.05846 -0.75234,-1.07576 -0.57036,-1.20587 0.11075,-0.0792 0.14324,-0.0816 0.19886,-0.0149 0.0233,0.0281 0.061,0.0439 0.0836,0.0352 0.0249,-0.01 0.3075,0.36342 0.71215,0.93936 l 0.67109,0.9552 0.20185,-0.14319 c 0.11102,-0.0788 0.61804,-0.43176 1.12668,-0.78446 0.50866,-0.35269 0.9371,-0.65188 0.95213,-0.66486 0.0151,-0.013 -0.28586,-0.4676 -0.66858,-1.01027 -0.4967,-0.7043 -0.68646,-0.9981 -0.6631,-1.02662 0.018,-0.022 0.0238,-0.0543 0.013,-0.0719 -0.0308,-0.0496 0.1511,-0.16019 0.26252,-0.15957 0.0933,5.3e-4 0.14584,0.0659 0.79163,0.98513 l 0.6917,0.98457 0.0866,-0.0607 c 0.0476,-0.0334 0.55476,-0.38588 1.127,-0.78335 0.57224,-0.39748 1.05291,-0.73382 1.0682,-0.74743 0.0153,-0.0136 -0.27157,-0.45003 -0.63741,-0.96984 -0.38716,-0.55009 -0.6577,-0.96468 -0.64728,-0.99197 0.01,-0.0258 0.003,-0.0771 -0.0182,-0.11408 -0.0314,-0.0584 -0.0201,-0.0782 0.0866,-0.15093 0.0741,-0.0506 0.13094,-0.0705 0.14348,-0.0502 0.0114,0.0184 0.0419,0.0256 0.0677,0.0161 0.0323,-0.012 0.25847,0.28564 0.72678,0.95671 0.50435,0.72264 0.69427,0.97077 0.73562,0.96105 0.0307,-0.007 0.42831,-0.27217 0.88366,-0.58882 0.54022,-0.3757 0.82203,-0.59112 0.81108,-0.62002 -0.009,-0.0244 -0.007,-0.0609 0.006,-0.0813 0.0804,-0.13056 0.0366,-0.20651 -0.82542,-1.43376 -0.47601,-0.67764 -0.87958,-1.23204 -0.89686,-1.23201 -0.0172,3e-5 -2.01668,1.38423 -4.44312,3.07599 -2.42641,1.69176 -4.43156,3.08787 -4.45582,3.10247 -0.0355,0.0213 -0.0443,-0.031 -0.0447,-0.26747 v -0.29399 l 4.51673,-3.14592 c 2.48419,-1.73025 4.59425,-3.20272 4.68899,-3.27215 0.10954,-0.0803 0.16569,-0.14328 0.1542,-0.17306 -0.0103,-0.027 0.0122,-0.0631 0.0531,-0.0851 0.0457,-0.0246 0.064,-0.0571 0.0509,-0.0909 -0.0111,-0.029 -0.003,-0.0639 0.0201,-0.0777 0.0311,-0.0193 0.0298,-0.0376 -0.006,-0.0803 -0.0254,-0.0304 -0.0441,-0.0948 -0.0416,-0.143 0.003,-0.0666 -0.77655,-1.19654 -3.25247,-4.71167 -2.06719,-2.93486 -3.27681,-4.62412 -3.31134,-4.62433 -0.0299,-1.8e-4 -0.085,-0.0391 -0.12232,-0.0864 -0.0374,-0.0473 -0.11512,-0.0954 -0.17277,-0.10681 -0.0962,-0.019 -0.20423,0.0483 -1.31411,0.81928 -0.66511,0.46202 -1.22785,0.85096 -1.25058,0.86432 -0.0317,0.0187 -0.0413,-0.0431 -0.0415,-0.26706 l -1.8e-4,-0.29134 1.12958,-0.78589 c 0.86331,-0.60061 1.13983,-0.77744 1.17293,-0.75008 0.0321,0.0265 0.0607,0.0199 0.11073,-0.0255 0.0543,-0.0493 0.0728,-0.0526 0.0949,-0.017 0.0151,0.0243 0.0446,0.0335 0.0656,0.0205 0.0209,-0.013 0.0562,-0.011 0.0781,0.005 0.022,0.0155 0.0846,0.0279 0.13917,0.0274 0.0566,-5.3e-4 0.11782,0.0239 0.14253,0.0569 0.0238,0.0318 0.072,0.0577 0.10713,0.0577 0.038,-7e-5 0.0999,0.0542 0.15301,0.13413 0.0681,0.10244 0.10546,0.13038 0.1578,0.11793 0.0591,-0.014 0.51636,0.62051 3.2962,4.57402 2.61377,3.71728 3.22027,4.59927 3.18884,4.63727 -0.0304,0.0368 -0.0238,0.0712 0.0312,0.15974 0.0386,0.0622 0.0608,0.13699 0.0495,0.16663 -0.0114,0.0296 -0.003,0.0752 0.019,0.10146 0.0225,0.0271 0.0281,0.0662 0.013,0.0905 -0.0148,0.0236 -0.0279,0.0879 -0.0292,0.14307 0,0.0551 -0.0135,0.11841 -0.0273,0.14062 -0.0138,0.0222 -0.0169,0.0533 -0.007,0.069 0.01,0.0157 -0.0114,0.055 -0.0467,0.0872 -0.0355,0.0322 -0.0557,0.0726 -0.0451,0.0898 0.0106,0.0172 -0.0119,0.0533 -0.0503,0.0802 -0.0383,0.0269 -0.0696,0.0759 -0.0695,0.10884 5e-5,0.0332 -0.0587,0.099 -0.13203,0.14768 -0.0727,0.0483 -0.13208,0.10155 -0.13205,0.11836 2e-5,0.0168 0.39478,0.59192 0.87722,1.27803 0.58291,0.82897 0.86696,1.2598 0.84675,1.28425 -0.019,0.0232 -0.0127,0.0618 0.0172,0.10452 0.0262,0.0373 0.0374,0.078 0.0249,0.0905 -0.0228,0.0228 -0.0474,0.20107 -0.0473,0.34158 0,0.0409 -0.0143,0.0744 -0.0318,0.0745 -0.0175,3e-5 -0.0225,0.0289 -0.0114,0.0641 0.0143,0.0446 0,0.0754 -0.0482,0.10104 -0.0378,0.0203 -0.0645,0.0617 -0.0593,0.092 0.009,0.0517 -1.04648,0.79407 -9.79194,6.88777 l -1.11474,0.77673 v -0.17173 z"
       id="path57024" />
    <path
       style="fill:none;stroke:#4056ff;stroke-width:0.7;stroke-linecap:butt;stroke-linejoin:miter;stroke-miterlimit:4;stroke-dasharray:none;stroke-opacity:1;marker-end:url(#marker13687)"
       d="m 154.07649,117.78417 h 26.341 V 82.581199 l 21.60869,2e-6"
       id="path71169" />
    <path
       style="fill:none;stroke:#175c00;stroke-width:1;stroke-linecap:butt;stroke-linejoin:miter;stroke-miterlimit:4;stroke-dasharray:none;stroke-opacity:1"
       d="m 188.48932,119.14399 h 35.34818 v 16.659"
       id="path4759" />
    <path
       style="fill:none;stroke:#175c00;stroke-width:1;stroke-linecap:butt;stroke-linejoin:miter;stroke-miterlimit:4;stroke-dasharray:none;stroke-opacity:1"
       d="m 223.8375,119.14399 h 19.15422"
       id="path1404" />
    <rect
       style="fill:none;stroke:#b87750;stroke-width:0.5;stroke-miterlimit:4;stroke-dasharray:none;stroke-opacity:1"
       id="rect1199"
       width="42.094952"
       height="19.03627"
       x="243.16849"
       y="110.61617" />
    <text
       xml:space="preserve"
       style="font-style:normal;font-weight:normal;font-size:7.76111px;line-height:1.25;font-family:sans-serif;fill:#b87750;fill-opacity:1;stroke:none;stroke-width:0.264583"
       x="247.2916"
       y="117.30537"
       id="text10450"><tspan
         id="tspan10448"
         style="font-size:7.76111px;fill:#b87750;fill-opacity:1;stroke-width:0.264583"
         x="247.2916"
         y="117.30537">AHB/APB</tspan><tspan
         style="font-size:7.76111px;fill:#b87750;fill-opacity:1;stroke-width:0.264583"
         x="247.2916"
         y="127.00675"
         id="tspan13478"> bridge</tspan></text>
    <path
       style="fill:none;stroke:#b87750;stroke-width:1;stroke-linecap:butt;stroke-linejoin:miter;stroke-miterlimit:4;stroke-dasharray:none;stroke-opacity:1;marker-end:url(#Arrow1Mend)"
       d="m 285.28697,119.14399 h 28.04584"
       id="path19911" />
    <text
       xml:space="preserve"
       style="font-style:normal;font-weight:normal;font-size:7.76111px;line-height:1.25;font-family:sans-serif;fill:#b87750;fill-opacity:1;stroke:none;stroke-width:0.264583"
       x="291.37238"
       y="117.07812"
       id="text22249"><tspan
         id="tspan22247"
         style="font-size:7.76111px;fill:#b87750;fill-opacity:1;stroke-width:0.264583"
         x="291.37238"
         y="117.07812">APB</tspan></text>
    <text
       xml:space="preserve"
       style="font-style:normal;font-weight:normal;font-size:9.87778px;line-height:1.25;font-family:sans-serif;letter-spacing:0px;word-spacing:0px;writing-mode:lr-tb;fill:#626060;fill-opacity:1;stroke:none;stroke-width:0.265;stroke-miterlimit:4;stroke-dasharray:none"
       x="46.642998"
       y="177.69012"
       id="text1021-44-8-6"><tspan
         id="tspan1019-75-1-1"
         x="46.642998"
         y="177.69012"
         style="text-align:center;text-anchor:middle;fill:#626060;fill-opacity:1;stroke-width:0.265;stroke-miterlimit:4;stroke-dasharray:none">AXI_lite</tspan><tspan
         x="46.642998"
         y="190.03735"
         style="text-align:center;text-anchor:middle;fill:#626060;fill-opacity:1;stroke-width:0.265;stroke-miterlimit:4;stroke-dasharray:none"
         id="tspan33701"> xbar</tspan></text>
    <rect
       style="fill:none;fill-opacity:0.627451;fill-rule:nonzero;stroke:#626060;stroke-width:0.432;stroke-miterlimit:4;stroke-dasharray:none;stroke-dashoffset:0;stroke-opacity:1;paint-order:stroke fill markers"
       id="rect1017-7-7-9"
       width="46.780231"
       height="22.78896"
       x="23.028606"
       y="168.78679" />
    <text
       xml:space="preserve"
       style="font-style:normal;font-weight:normal;font-size:9.87778px;line-height:1.25;font-family:sans-serif;fill:#000000;fill-opacity:1;stroke:none;stroke-width:0.264583"
       x="-246.38156"
       y="21.39896"
       id="text37900"
       transform="rotate(-90)"><tspan
         id="tspan37898"
         style="font-size:9.87778px;fill:#626060;fill-opacity:1;stroke-width:0.264583"
         x="-246.38156"
         y="21.39896">Rootvoter</tspan></text>
    <rect
       style="fill:none;fill-opacity:1;stroke:#626060;stroke-width:0.432;stroke-miterlimit:4;stroke-dasharray:none;stroke-opacity:1"
       id="rect57851"
       width="51.262295"
       height="14.03165"
       x="-247.38818"
       y="10.852605"
       transform="rotate(-90)" />
    <text
       xml:space="preserve"
       style="font-style:normal;font-weight:normal;font-size:9.87778px;line-height:1.25;font-family:sans-serif;fill:#000000;fill-opacity:1;stroke:none;stroke-width:0.264583"
       x="-246.38156"
       y="35.430607"
       id="text37900-7"
       transform="rotate(-90)"><tspan
         id="tspan37898-4"
         style="font-size:9.87778px;fill:#626060;fill-opacity:1;stroke-width:0.264583"
         x="-246.38156"
         y="35.430607">Rootvoter</tspan></text>
    <rect
       style="fill:none;fill-opacity:1;stroke:#626060;stroke-width:0.432;stroke-miterlimit:4;stroke-dasharray:none;stroke-opacity:1"
       id="rect57851-9"
       width="51.262295"
       height="14.03165"
       x="-247.38818"
       y="24.884251"
       transform="rotate(-90)" />
    <text
       xml:space="preserve"
       style="font-style:normal;font-weight:normal;font-size:9.87778px;line-height:1.25;font-family:sans-serif;fill:#000000;fill-opacity:1;stroke:none;stroke-width:0.264583"
       x="-246.38141"
       y="49.462254"
       id="text37900-1"
       transform="rotate(-90)"><tspan
         id="tspan37898-0"
         style="font-size:9.87778px;fill:#626060;fill-opacity:1;stroke-width:0.264583"
         x="-246.38141"
         y="49.462254">Rootvoter</tspan></text>
    <rect
       style="fill:none;fill-opacity:1;stroke:#626060;stroke-width:0.432;stroke-miterlimit:4;stroke-dasharray:none;stroke-opacity:1"
       id="rect57851-6"
       width="51.262001"
       height="14.03165"
       x="-247.38789"
       y="38.915897"
       transform="rotate(-90)" />
    <path
       style="fill:none;stroke:#626060;stroke-width:0.264583px;stroke-linecap:butt;stroke-linejoin:miter;stroke-opacity:1"
       d="m 46.418724,164.43854 v 4.23333"
       id="path1891" />
    <path
       style="fill:none;stroke:#626060;stroke-width:0.264583px;stroke-linecap:butt;stroke-linejoin:miter;stroke-opacity:1"
       d="m 46.418724,191.67234 v 4.25627"
       id="path2027" />
    <path
       style="fill:none;stroke:#626060;stroke-width:0.264583px;stroke-linecap:butt;stroke-linejoin:miter;stroke-opacity:1"
       d="m 25.763801,191.69062 v 2.32033 h -7.803289 v 1.94608"
       id="path2274" />
    <path
       style="fill:none;stroke:#626060;stroke-width:0.264583px;stroke-linecap:butt;stroke-linejoin:miter;stroke-opacity:1"
       d="m 31.900076,191.64608 v 4.25627"
       id="path2027-9" />
    <text
       xml:space="preserve"
       style="font-style:normal;font-weight:normal;font-size:9.87778px;line-height:1.25;font-family:sans-serif;fill:#000000;fill-opacity:1;stroke:none;stroke-width:0.264583"
       x="-242.68207"
       y="63.559021"
       id="text37900-1-2"
       transform="rotate(-90)"><tspan
         id="tspan37898-0-8"
         style="font-size:9.87778px;fill:#626060;fill-opacity:1;stroke-width:0.264583"
         x="-242.68207"
         y="63.559021">AXI ROM</tspan></text>
    <rect
       style="fill:none;fill-opacity:1;stroke:#626060;stroke-width:0.432;stroke-miterlimit:4;stroke-dasharray:none;stroke-opacity:1"
       id="rect57851-6-3"
       width="51.262001"
       height="14.03165"
       x="-247.38789"
       y="52.947548"
       transform="rotate(-90)" />
    <path
       style="fill:none;stroke:#626060;stroke-width:0.264583px;stroke-linecap:butt;stroke-linejoin:miter;stroke-opacity:1"
       d="m 59.994271,191.67234 v 4.25627"
       id="path2027-3" />
    <path
       style="fill:none;stroke:#626060;stroke-width:0.264583px;stroke-linecap:butt;stroke-linejoin:miter;stroke-opacity:1"
       d="m 66.410416,191.65755 v 2.3534 h 7.396062 v 31.12709 h 4.256267"
       id="path7851" />
    <text
       xml:space="preserve"
       style="font-style:normal;font-weight:normal;font-size:10.5833px;line-height:1.25;font-family:sans-serif;fill:#626060;fill-opacity:1;stroke:none;stroke-width:0.264583"
       x="13.470385"
       y="261.17578"
       id="text16982"><tspan
         id="tspan16980"
         style="fill:#626060;fill-opacity:1;stroke-width:0.264583"
         x="13.470385"
         y="261.17578">AXI4</tspan></text>
    <path
       style="fill:#ff0000;stroke:#000000;stroke-width:0.4"
       d="m 16.494598,164.25052 -53.848174,-22.1275"
       id="path2" />
    <path
       style="fill:#ff0000;stroke:#000000;stroke-width:0.4"
       d="m -37.353576,164.25052 53.848174,-22.1275"
       id="path3" />
    <path
       style="fill:#ff0000;stroke:#000000;stroke-width:0.4"
       d="M 5.854451,107.42672 35.336599,77.944572"
       id="path4" />
    <path
       style="fill:#ff0000;stroke:#000000;stroke-width:0.4"
       d="M 5.854451,77.944572 35.336599,107.42671"
       id="path5" />
    <path
       style="fill:#ff0000;stroke:#000000;stroke-width:0.4"
       d="M 40.174671,77.944561 69.656816,107.4267"
       id="path6" />
    <path
       style="fill:#ff0000;stroke:#000000;stroke-width:0.4"
       d="M 40.174671,107.4267 69.656816,77.944561"
       id="path7" />
    <path
       style="fill:#ff0000;stroke:#000000;stroke-width:0.4"
       d="M 74.494889,77.944561 103.97704,107.4267"
       id="path8" />
    <path
       style="fill:#ff0000;stroke:#000000;stroke-width:0.4"
       d="M 74.494889,107.4267 103.97704,77.944561"
       id="path9" />
    <path
       style="fill:#ff0000;stroke:#000000;stroke-width:0.4"
       d="M 108.81512,77.944561 138.29727,107.4267"
       id="path10" />
    <path
       style="fill:#ff0000;stroke:#000000;stroke-width:0.4"
       d="M 108.81512,107.42671 138.29727,77.944561"
       id="path11" />
    <path
       style="fill:#ff0000;stroke:#000000;stroke-width:0.4"
       d="M 143.13534,77.944561 172.61749,107.4267"
       id="path12" />
    <path
       style="fill:#ff0000;stroke:#000000;stroke-width:0.4"
       d="M 143.13534,107.4267 172.61749,77.944561"
       id="path13" />
    <path
       style="fill:none;stroke:#626060;stroke-width:0.264583px;stroke-linecap:butt;stroke-linejoin:miter;stroke-opacity:1"
       d="m 100.41263,229.65833 h 8.62879"
       id="path24514-2" />
  </g>
</svg>
